<?xml version="1.0" encoding="utf-8"?>
<!-- Generator: Adobe Illustrator 27.8.0, SVG Export Plug-In . SVG Version: 6.00 Build 0)  -->
<svg version="1.1" id="Capa_1" xmlns="http://www.w3.org/2000/svg" xmlns:xlink="http://www.w3.org/1999/xlink" x="0px" y="0px"
	 viewBox="0 0 2048 2048" style="enable-background:new 0 0 2048 2048;" xml:space="preserve">
<style type="text/css">
	.st0{fill:#0C0D0C;}
	.st1{fill:#AD9366;}
	.st2{fill:#BBA472;}
	.st3{fill:#D6C493;}
	.st4{fill:url(#SVGID_1_);}
	.st5{fill:url(#SVGID_00000170272052657209274790000007906311463135325625_);}
	.st6{fill:url(#SVGID_00000158741409795627282120000003891045569463591048_);}
	.st7{fill:#FFFFFF;}
	.st8{fill:#D9C391;}
</style>
<path class="st0" d="M-4958.7-32.5h2048v2048h-2048V-32.5z"/>
<path class="st1" d="M-3954.6,547.9c14.7-1.1,36.3-0.5,51,0.3c142.2,7.5,275.7,70.8,371.5,176.2l98.9-0.1
	c-9.3,33.4-16.9,68.2-26.6,101.4c34.3,60.8,56.1,140.4,61.4,209.7c9.7,137.4-35.5,273-125.8,377.1
	c-71.9,82.8-166.6,142.4-272.3,171.5c-36.9,9.8-72.2,14.6-110.1,17.5c-36.1,1.3-62.9,0.3-98.7-4.3c-143.2-19.7-272.8-95-360.8-209.6
	h-70.8c7.3-24.7,15-54.7,20.8-79.8c-39.1-81.3-60.3-164.2-56.5-254.5c8-191.2,119.3-360.9,289.8-446.8
	C-4107.8,568.7-4038.3,552.1-3954.6,547.9z"/>
<path class="st0" d="M-3728.6,752.9c4.4-0.7,19.8-0.5,24.7-0.5l53.2,0.1h180.2c-37,141.6-69.4,285.7-107.1,427.2
	c-45.9,14-87.8,23.8-136.1,27.1c9.6-35.2,18.3-72.2,27.2-107.7l54.2-215.6l-113.8,0.1c-4.2,21.2-11.9,46.9-17,68.4
	c-13.6,56.7-29.8,113.8-43.1,170.5c-5.5,18.8-23.4,78.6-18.3,95.1c1.7,5.3,5.1,9.2,10,11.7c11.6,5.8,28.6,3.2,41.3,3.2
	c17.8,0.1,35.8,0.6,53.6-0.4c46.2-2.4,91.5-11.8,135.5-25.7c-10.2,33.2-19.7,60.9-41.4,88.8c-26.1,32.9-64,58.3-106.8,61.9
	c-40,3.3-83.3,0-122.9,1.2c-78.6,2.2-125.9-44.6-109.4-124c6-28.5,13.2-57.9,20.2-86.4l32.3-132.2l21.7-89.7
	c4.9-20.4,10.2-45.4,17-64.9c6.6-19,16.7-36.6,29.6-52.1C-3813.1,772.6-3774.8,756.8-3728.6,752.9z"/>
<path class="st0" d="M-4115.4,752.9c4-0.2,7.9-0.4,11.9-0.4l64-0.1c41.3,0,79.6-2.4,111.1,28.9c28.4,28.2,29.9,64.4,22.4,101.5
	c-5.1,25.3-11.6,50.3-17.7,75.3l-32.5,133.3l-23.5,96.2c-5.2,21.2-10.9,47.4-18.7,67.3c-8.5,21.5-21.4,40.9-37.9,57.1
	c-57.8,57.2-116.5,47-190.8,47l-170.8-0.2c9.7-41.2,21.5-84,32-125.2h241.5c6.4-28,14.9-58.3,22.1-86.3l-74.1,0.1
	c-45.7,0-106.3,5.1-133.4-40.9c-17.7-30-9.1-61-1-92.4c6.4-24.8,12.9-49.6,19.8-74.4c36.7-12.9,93.7-25.2,132-30
	c-9.9,32.2-20.8,79.5-28.4,112.7h118c5.4-20.5,30-104.3,26.9-119.9c-1.2-6-5.7-13-11.1-16.1c-9.7-5.6-27.8-3.2-38.7-3.2
	c-18.2,0.1-36.4-0.4-54.6,0.7c-45.9,3-91.8,13.9-135.6,27.5c11.2-38.5,19-72.2,46.4-102.9C-4202.6,771.2-4164.5,756.1-4115.4,752.9z
	"/>
<path class="st0" d="M-3946.5,576.9c3.8-0.2,7.6-0.3,11.4-0.3c135.4-0.5,251.4,54,346.5,148.4l-110.3,0.1
	c-31.9-22-63.5-39.6-100.1-52.7c-100.8-35.9-211.7-29.9-308,16.5c-28.3,13.2-53.3,29.8-78,48.7c-8.5,5.8-18,9.9-26.6,15.7
	c-25.5,17.1-44.5,39.9-61.2,65.3c-43.7,14.8-59.8,24.6-99.2,44.5c21.2-49,50.7-94,87.2-132.9
	C-4197.4,635.5-4075.3,580.2-3946.5,576.9z"/>
<path class="st1" d="M-4037.3,599.7c21.7-3,30.9,16.1,16.4,30.9c5.6,4.4,9.7,8.8,14.6,13.9l-12.4,2.5c-4-4-8.6-8-12.7-11.9l-11,3.1
	l3.5,13.8c-3.7,1.2-7.7,2.2-11.5,3.3c-3.8-16.6-7.8-33.2-12-49.8C-4054.1,603.4-4045.8,601.5-4037.3,599.7z"/>
<path class="st0" d="M-4039.4,609.6c5.4-0.6,9.8-0.8,12.7,4.8c1.1,2.1,1.1,4.5,0,6.6c-1.6,3.1-3.6,3.8-6.5,5.1l-11,3
	c-1.1-5.2-3.8-11-2.7-15.7C-4044.5,610.1-4044.3,611-4039.4,609.6z"/>
<path class="st1" d="M-3915.7,639.3c1.4-11.2,2.6-41.8,7.2-49c9.4-5.6,25.6,24.5,30.5,32c1.1-9.9,2.1-20,3.2-29.9
	c3.5,0.4,7.9,1.1,11.4,1.2c-0.6,14.5-2.8,35-4.6,49.6c-3.4-0.3-6.9-0.6-10.3-0.8c-3.1-4.4-9.7-14.7-12.9-18.3l-1.4,0.6l-2.3-2.1
	c-4.1-0.6-2.6-0.6-7,2.4c-0.6,4.7-1.2,10.3-2.1,14.9L-3915.7,639.3z"/>
<path class="st0" d="M-3902,625l1.7-14.6c1.5,2.2,8.3,12,9,13.7l-1.4,0.6l-2.3-2.1C-3899.1,622-3897.5,622-3902,625z"/>
<path class="st1" d="M-3697.3,655.3c3.6,0.7,8.3,4,11.7,6c-2.8,16.6-4.6,37.8-6.4,54.8l-10.9-6.2c0.3-3.7,1-8,1.4-11.7l-9-5.5
	l-11.6-7.1l-8.4,6.7l-11.4-7C-3728.8,677.6-3710.3,664.1-3697.3,655.3z"/>
<path class="st0" d="M-3698.7,668.5l0.6,0.6c0.8,3.7-1.2,14.8-1.8,19.1l-7.7-4.5l-6.1-4.3L-3698.7,668.5z"/>
<path class="st1" d="M-4166.1,650.5l1.6,0.3c8.5,11.7,18.6,28.7,26.6,41.2l-10.4,6l-11-17.5c-6.5,4.2-13,8.4-19.5,12.7l11.3,18
	l-8.4,5.2l-0.9,0.6c-2.4-1-24.9-36.9-28.3-42.2c3.5-2.3,6.4-4,10.1-6l10.9,16.1l19.3-12.6l-10.4-16.6
	C-4172.4,654-4168.9,652.1-4166.1,650.5z"/>
<path class="st1" d="M-4095.9,616.5c2,3,1.9,2.8,2.9,6.4c-2.8,6.2-17.1,10.1-23.9,12.7l4.2,9.9c7.5-2.9,14.3-6,21.6-9.3
	c1.1,2.7,2.4,6.2,3.4,9l-21.7,8.7l4.5,10.6l23.8-10.1l1.5-0.4c2.2,1.8,3.2,6.2,4.2,9.2c-10.8,3.5-25.8,10.2-36.7,14.6
	c-6.5-13.9-13.4-31.8-19.4-46.1L-4095.9,616.5z"/>
<path class="st1" d="M-3969,590.1c6.7-0.5,15.9-1.5,22.4-0.8c1.8,2.1,1.1,2.4,1.3,5.9c-4.3,8.4-22.8-2.9-26.9,10
	c4.4,9.4,18.3,2.2,24.4,5.1c0.5,3,0.4,2.9-0.1,6c-6.4,6.1-17.7-0.5-22.4,4.8c0.1,3.2-0.2,6.1,1.2,8.9l2.7,0.5
	c5.1-0.7,21.5-2.6,24.9,0.4c-0.1,3.6,0.6,5-1.2,7.2c-8.5,1.8-29.1,2.2-38.7,2.7c-0.1-13.3-1.9-36-3.1-49.3
	C-3979.4,590.7-3974.4,590.4-3969,590.1z"/>
<path class="st1" d="M-3818.4,605.5c18-1.1,23.6,2.1,35,15.2c-18,8.9-16.6-10.8-29.9-5.4c-16.6,6.8-16.9,26,2,32.3
	c5.4-0.2,5.9-2,11.7-2.2c3,1.4,4.7,5.6,6.4,8.7c-15.7,5.7-33.6,4.1-41.8-12.5c-3.1-6.1-3.4-13.3-1.1-19.7
	C-3833,613.3-3826.4,609-3818.4,605.5z"/>
<path class="st1" d="M-3752.6,625c2.8,1.6,7.7,3.4,10.9,4.7c-5.4,14.4-14.1,31.1-20.1,46.4l-11-5.3
	C-3766.7,655.9-3759.2,639.8-3752.6,625z"/>
<path class="st0" d="M-3598.1,1298.2c40.3-13.7,61.4-24,99.9-41.8c-20.9,52.1-69,114.1-110.4,151.5
	c-95.6,87.7-222.7,132.9-352.2,125.4c-105.2-6.3-205.5-46.4-286-114.4c-10.4-8.8-25.1-21.3-34.2-31.4h99.2
	c61.3,42.8,123.2,71.2,198.4,79.5l1.2-1.9c-1.6-0.5-2-0.4-3.1-1.6c2.5-1.4,97,1.3,108.5-0.7c0.2,0.1,0.5,0.2,0.7,0.4
	c-0.5,2.5-0.1,1.3-2.1,3.4c3.1-0.4,6.1-0.8,9.2-1.3C-3761.6,1448.7-3662,1385.5-3598.1,1298.2z"/>
<path class="st2" d="M-3983.4,1466.9l1.2-1.9c-1.6-0.5-2-0.4-3.1-1.6c2.5-1.4,97,1.3,108.5-0.7c0.2,0.1,0.5,0.2,0.7,0.4
	c-0.5,2.5-0.1,1.3-2.1,3.4C-3907,1470.3-3954.5,1471.5-3983.4,1466.9z"/>
<path class="st3" d="M-3954.1,664.9c20.4-2.7,57.6,0.6,77.5,3.6c44.6,6.7,90.6,21.1,128.6,45.6c3.1,2,16.3,8.6,17.8,10.6l-1.4,0.7
	c-3.6-0.6-5.1-1-8.7-0.4c-64.6,10.5-103.6,35.2-137,90.5l-1.1-0.2l-2.1-5.8c-15.7-47-52.4-74.2-101.1-82.5
	c-11.4-1.9-23.9-2-35.5-3.3l0.6,0.4l0.8-1.2h0.5v1.6l0.5,0.1l1-1.7v1.9l0.5,0.1l1.1-1.9h0.5l-0.2,2.2l1.2-2.1
	c17.2,0.8,28.1,2.4,45.2,6c7.4,1.6,14.6,6,19.2,6c-7.2-7.8-3.8-14.3-3-23.2c0.1-1.2-7-8.2-5.7-10.2c7.8-12.4-1.9-14.2-2.1-18.2
	c2.6-1.9,2.1-1.1,3.7-3.5c-2.6-2.7-2.2-6.9-2.4-10.7c-5-6.9-40.7,5.4-47.8,2c6.4-0.3,8.8-2.2,14.9-3
	C-3977.3,666.7-3965.6,665.8-3954.1,664.9z"/>
<linearGradient id="SVGID_1_" gradientUnits="userSpaceOnUse" x1="-3759.4709" y1="407.4916" x2="-3968.2839" y2="511.1616" gradientTransform="matrix(1 0 0 1 0 902.9678)">
	<stop  offset="0" style="stop-color:#C4AC7C"/>
	<stop  offset="1" style="stop-color:#DECF9F"/>
</linearGradient>
<path class="st4" d="M-3979.6,1323.9c1.6,1.3,1.2,0.7,2.2,2.3c11.6,16.9,19.6,26.8,37.1,37.3c33.5,20.3,66,21.4,103.9,21.2
	c20.9,0.1,41.6,0.4,62.5-0.2c12.7-0.3,26.9,1.8,39.6-0.1c2.7-0.4,7.1-2.1,9.8-0.8c-4.2,4-17.5,11.6-23.3,15.6
	c-16,11-41.2,20.6-59.7,27.3c-50.2,16.1-94.3,23.5-147.4,20.2c-3.4-0.2-27.6-2.2-29.8-2.9c2.9-1.1,25.1,1.4,30.8,1.6l1.4-1.5
	c0-3.5,0.8-6-0.1-9.4c-1.7,0.3-3.5,0.7-5.2,1.1c-1.5-5.5,7.1-7.9,8.9-14.5l-2.6,0.1c-3.3-3.2-4.8-5.1-7.6-8.8l0.5-2.9
	c4.2-3.2,4.2-2.5,4.8-6.7c-2,1.3-1.1,1.3-2.8,0.9c-3.1-7.4,2.5-18.2-4.1-26.9c-2.9-3.8,1.5-18.4,0.6-20.5
	C-3964.8,1344.8-3974.8,1335.4-3979.6,1323.9z"/>
<path class="st0" d="M-3480.3,896.2c2.5,2.7,5.4,14.1,6.6,18.4c12.5,44.5,19,90.6,19.1,136.8c-14.5,13.3-40.9,28.2-58.6,37
	c-5.6,2.7-11.8,5.3-17.6,7.8C-3513,1029.9-3497.9,962.4-3480.3,896.2z"/>
<path class="st0" d="M-4338,1026.5l0.7,0.6c0.4,2.2-45.2,179.7-49.5,196c-2.1-5.3-4.1-11.7-6-17.2c-14.4-48.6-19.8-82.8-21.4-133.8
	C-4386.7,1051.3-4368.7,1041.3-4338,1026.5z"/>
<linearGradient id="SVGID_00000176028213036787592990000010041744959747452822_" gradientUnits="userSpaceOnUse" x1="-3547.5742" y1="219.1824" x2="-3460.3542" y2="223.2024" gradientTransform="matrix(1 0 0 1 0 902.9678)">
	<stop  offset="0" style="stop-color:#B99F6E"/>
	<stop  offset="1" style="stop-color:#DFD19F"/>
</linearGradient>
<path style="fill:url(#SVGID_00000176028213036787592990000010041744959747452822_);" d="M-3457,1076.4c3.1,4.9-4.5,56.7-6.1,65.4
	c-28.1,11.7-56.9,21.8-86.1,30.2c-2.2-4.8,9.7-41.3,11.5-49.6C-3506.1,1107.6-3485.8,1096.3-3457,1076.4z"/>
<linearGradient id="SVGID_00000003808699748655364800000007903216989828225720_" gradientUnits="userSpaceOnUse" x1="-4358.5171" y1="257.6659" x2="-4303.5034" y2="256.7359" gradientTransform="matrix(1 0 0 1 0 902.9678)">
	<stop  offset="0" style="stop-color:#B79E6B"/>
	<stop  offset="1" style="stop-color:#DFD1A2"/>
</linearGradient>
<path style="fill:url(#SVGID_00000003808699748655364800000007903216989828225720_);" d="M-4333.1,1108.4
	c7.7,8.7,13.3,26.1,25.2,33.4c1.8,1.1,13.5,10.8,13.8,11.9c-2.2-0.7-1.2-0.6-3.2-0.3l-0.7,4.6c-0.8-1.6-0.7-1.9-1.8-2.9l-2.7,0.9
	c-0.2,10.8-6.8,42.8-0.4,51.8c1,1.4,5.9,1.9,8,2.1l0.9,0.1l-1.9,1c-4.1,0.3-8.1,0.4-12.2,0.5c-7.3,0.1-44.5,1.7-48.5-2.3v-5.6
	l0.3,1.2c1.4-6.3,1.8-14,3.3-19.9C-4346.5,1159.6-4340.2,1133.3-4333.1,1108.4z"/>
<path class="st3" d="M-4306.5,855.8c4.9-2.2,9.5-4.8,14.7-4.8c6.4,4-2.7,19.5-5.2,25.9c-4.3,9.8-11,32.3-13.2,42.5
	c-10.8,4.8-40.1,17.7-49.8,21c5.7-3.3,28.3-13.6,30.1-15.8c1-5.2-1.7-7.8-2.5-13c0.4-1,0.7-1.9,1.1-2.9c-2-1.6-2.3-2.9-2.1-5.8
	c0.6-9.2,2.8-19.7,1.5-28.9c-0.3-2.1-1.4-2.4-2.8-3.2c-3.7,0.6-9.6,4.5-12.3,7.1c-6.2,5.9-5.2,2.2-13.3,5.8
	C-4351.5,876.1-4318.1,860.8-4306.5,855.8z"/>
<path class="st2" d="M-4306.5,855.8c4.9-2.2,9.5-4.8,14.7-4.8c6.4,4-2.7,19.5-5.2,25.9c-1-2.9-1.5-4.3-2.1-7.4l2.5,0.2
	C-4299.2,863.5-4304,868-4306.5,855.8z"/>
<path class="st3" d="M-3467,1154.4l1,1.6c-4.6,22.8-12.3,45.8-20,67.8c-4.7,3-32.2,18.8-35.4,18.3c3.4-2.7,3.3-1.8,4.5-5.2
	c1.6,1,0.7,0.7,2.4,0.8c0.5-1.5,0.7-2.7,0.9-4.3c1.3,0.9,1.4,1.3,2.4,2.6l13-6.6c1.5-3.9,0.3-1.3-1.2-5.4c-0.9-2.5,4.1-8.5,6-11.3
	c0.8-5-7.7-22.2-1-29.9c1.3-1.5,0.5-5.3-0.1-7.2c-8-5.3-29.5,12.1-39.6,13.8C-3534.1,1188.9-3474.2,1158.3-3467,1154.4z"/>
<path class="st3" d="M-4316.7,946.7c0.7,1.2-13.1,48.7-14.8,55.1c-3.2,1.7-33.1,16.2-34.1,16.1c3.6-3.6,13-6.2,19-10.5
	c0.1-2.6,0.3-4.5,0.6-7l1-0.4l1.2,3.4l-0.3,2.6c1.4-0.5,2.6-3.8,3.6-5.6c0.2-3.7-0.7-7.2-2.2-10.6c-3.3-7.2,3.2-22.6-1.4-28.7
	c-5.4-7-16.8,4.6-23.7,3C-4362.8,959.9-4324.6,949-4316.7,946.7z"/>
<path class="st1" d="M-3935.2,381.1c3,3,14.2,43,16.4,50.3h52.5c-12.9,10.7-28.3,20.7-41.7,31.6c5.6,15.4,10.9,33.8,15.6,49.5
	c-13.7-9.7-28.1-20.9-41.6-31c-3.9,0.7-36.2,26-42.8,30.3c3.8-15,10.4-34.1,15-49.2c-13.8-10-27.8-20.8-41.5-31.1l52-0.1
	C-3945.7,415-3940.5,397.7-3935.2,381.1z"/>
<image style="overflow:visible;enable-background:new    ;" width="4096" height="4096" xlink:href="logo nuevo jpg.jpeg"  transform="matrix(0.4604 0 0 0.4604 -7018.8389 -2.3542)">
</image>
<path class="st7" d="M-2377.9-529.6c0.9-4.1,1.6-7.1,2.3-10c4.6-18.1,9-36.2,14-54.2c1.5-5.5,0.7-9.9-1.7-14.9
	c-7.3-14.9-13.7-30.1-19.4-45.6c-8.4-23-14.8-46.6-19.9-70.6c-3.1-14.4-5.3-28.9-7-43.5c-2.4-19.8-2.6-39.7-2.3-59.7
	c0.4-29.2,4.3-58,10.2-86.5c11.3-54.5,31.9-105.4,60.8-152.9c19.4-31.8,42.5-60.7,69.1-86.9c26.3-25.9,54.9-48.9,86.1-68.7
	c24.9-15.7,51.1-29,78.4-40.2c22.1-9,44.8-16.6,68.1-21.9c19.1-4.4,38.3-7.7,57.7-10.4c25.9-3.6,51.9-3.8,77.9-3.6
	c6.4,0,12.9-0.1,19.3,0.4c9.1,0.7,18.2,1.7,27.3,2.8c5.5,0.6,10.9,1.8,16.3,2.3c16.8,1.7,33.1,5.8,49.3,10
	c26.7,6.9,52.8,15.7,77.9,27.1c43.5,19.8,83.8,44.7,119.7,76.3c13.6,11.9,26.5,24.6,39.3,37.4c4.3,4.2,8.5,6.1,14.5,6
	c23.6-0.3,47.2-0.2,70.8-0.2c9.9,0,10.1,0.2,7.6,9.8c-6.5,25.5-13,51-19.7,76.4c-1.1,4.1-1,7.6,1.1,11.4
	c14.2,25.6,24.3,52.8,33.2,80.5c7.6,23.6,12.8,47.8,16.5,72.4c4.2,27.6,6.3,55.4,5.2,83.3c-0.5,12.2-2,24.4-3,36.6
	c-1.8,21.1-6.2,41.7-11,62.3c-5,21.5-12.1,42.4-20.3,62.9c-24.1,60.6-59.3,114-105.2,160.3c-31.2,31.4-65.9,58.6-104.5,80.7
	c-26.4,15.1-53.6,28.3-82,38.9c-23.5,8.8-47.6,15.7-72.4,19.9c-14.5,2.4-28.9,5.2-43.5,6.9c-13.7,1.5-27.4,2.8-41.2,2.4
	c-12.3-0.3-24.5,0.2-36.8-0.3c-9.5-0.4-18.9-1.7-28.3-2.8c-10-1.2-20-2.6-29.9-4.3c-26-4.3-51.4-10.9-76.3-19.6
	c-56.1-19.6-106.8-48.7-153.3-85.5c-28-22.2-52.6-47.7-75-75.5c-0.8-1-1.6-1.9-2.3-2.9c-2.9-4.6-6.9-6.2-12.4-6.1
	c-15.9,0.3-31.9,0.1-47.8,0.1C-2372.3-529.3-2374.4-529.4-2377.9-529.6z M-1489.9-1110.5c-4.1-2.9-7.8-2.1-11.4-2.1
	c-44.8-0.1-89.5-0.4-134.3,0c-31.9,0.3-63.7-1.6-95.6,1.3c-7,0.6-14.1,0.9-20.9,2.5c-40,9.2-71.7,30.6-94.1,65.2
	c-9.7,15-16.5,31.4-20.8,48.8c-8.1,33-16,66-24,99c-11.4,46.7-23,93.3-34.2,140c-7.5,31.5-16.3,62.8-22,94.7
	c-2.8,15.7-2.5,31.1,1.5,46.4c4.3,16.1,12.2,30,25.6,40.4c7.5,5.8,15.8,10.6,24.7,14c13.3,5,27.1,7.6,41.3,7.7
	c32.5,0.1,65,0.1,97.5,0.1c9.5,0,18.9-0.3,28.4-1.5c20.1-2.6,38.7-9.2,55.7-19.9c23-14.5,40.9-34,54.5-57.4
	c9.7-16.8,16.2-35,22-53.4c0.8-2.5,1.9-5.2,0.9-7.6c-2.9-2-5.1-0.3-7.4,0.4c-15.2,4.6-30.5,8.9-46.2,11.6
	c-12.9,2.2-25.8,4.7-38.8,6.7c-7.2,1.1-14.6,2-21.9,2.1c-25.4,0.5-50.9,0.7-76.3,0.9c-4,0-8-0.1-11.9-0.5
	c-11.5-1.2-18.2-8.6-18.6-20.1c-0.2-6.2,1.5-12.1,3-18c8.1-32,16.3-64.1,24.4-96.1c14.8-58.4,29.5-116.9,44.2-175.3
	c0.7-2.7,1-5.4,3.2-7.2c6.2-0.8,84.7-1.5,95.7-0.8c1.2,0.1,2.3,0.5,3.4,0.7c1.2,3.4-0.3,6.3-1,9.2c-3.4,14-7,27.9-10.5,41.8
	c-13.4,53.4-26.8,106.8-40.2,160.2c-6.5,25.8-13.1,51.6-19.6,77.4c-0.5,1.9-0.4,4-0.6,6.4c1.7,0.3,2.9,0.7,4,0.6
	c8.5-0.7,17.1-1.2,25.5-2.5c13-2,25.9-4.3,38.8-6.9c17.7-3.5,35.1-8.3,52.3-13.8c3.9-1.2,6.4-3.3,7.3-7.3c0.5-2.4,1.3-4.7,1.9-7.1
	c3.4-13.3,6.7-26.7,10.1-40.1c14.1-56.1,28.1-112.2,42.2-168.2c12.4-49.6,24.9-99.1,37.2-148.7
	C-1493-1094.7-1490.3-1102.2-1489.9-1110.5z M-2344-553c3.7,0.2,6.1,0.4,8.5,0.4c47.2,0.3,94.4,0.6,141.6,0.7
	c8.6,0,17.1-0.6,25.7-0.6c20.5-0.1,41.1-0.2,61.6-0.1c13.3,0.1,26.2-2.4,38.7-6.6c27.7-9.5,50.4-26.2,69-48.6
	c15.5-18.7,25.7-40.2,31.6-63.6c4.5-17.8,8.8-35.6,13.2-53.5c12.8-52.6,25.6-105.2,38.4-157.8c8.3-34.2,16.8-68.3,24.8-102.6
	c3.3-14,5.5-28.3,4.6-42.8c-0.7-12.3-3.1-24.3-8.7-35.4c-13.1-25.4-34.3-40.1-61.9-46c-12.6-2.7-25.5-3.1-38.4-3.1
	c-29.1,0-58.2-1-87.3,0.9c-8.9,0.6-17.8,0.8-26.5,2.5c-52.5,10.4-89.5,40.5-111.7,89c-7.1,15.6-11,32.4-15.9,48.8
	c-0.6,1.8,0,4,0,6.6c2.8-0.5,4.8-0.7,6.9-1.3c9.7-2.6,19.4-5.5,29.2-8c20.7-5.3,41.8-9.2,62.9-12.5c7.8-1.2,15.8-1.6,23.7-2.2
	c5.8-0.4,11.6-0.6,17.5-0.6c19.9,0,39.8-0.1,59.8,0.3c10.9,0.2,18.4,7.7,19,18.4c0.3,5.1-0.2,10.5-1.4,15.4
	c-6.8,27.9-14,55.8-21.1,83.7c-0.6,2.3-1.9,4.3-2.9,6.4c-2.7,0.2-4.8,0.6-6.9,0.6c-29.7,0.1-59.5,0.1-89.2,0.1
	c-1.8,0-3.7-0.2-5.5-0.5c-1.7-0.3-2.6-1.7-2.5-3.3c0.2-1.8,0.7-3.6,1.1-5.4c7.1-28.5,14.3-57,21.4-85.5c0.4-1.5,0.8-3,1-4.5
	c0.3-2.4-1.4-4-4-3.8c-0.9,0.1-1.8,0.3-2.7,0.4c-18.5,2.6-36.9,5.8-54.9,10.2c-18.1,4.5-36,9.7-54,14.5c-4.4,1.2-7.4,3.5-8.6,8.3
	c-7.5,30-15.4,59.8-22.9,89.8c-3,12-3.8,24.2-1,36.4c3.4,15,10,28.2,21.6,38.6c15.1,13.5,33.4,19.2,52.9,20.9
	c16.1,1.5,32.4,1.4,48.7,1.5c22.1,0.2,44.1,0,66.2,0.1c2.6,0,5.5-0.7,8.4,2c-0.6,2.9-1.2,6.1-2.1,9.3c-4.5,17.5-8.9,35-13.5,52.4
	c-3.7,13.9-1.7,12.7-16.3,12.7c-65,0-130,0-194.9,0c-3.1,0-6.1,0-9.2,0.1c-3.1,0.1-5.3,1.4-6,4.6c-0.3,1.2-0.8,2.3-1.1,3.5
	c-8.6,33.5-17.2,67-25.7,100.5C-2343.4-558.7-2343.5-556.3-2344-553z M-2235-527.7c-0.1,4.4,2.5,5.9,4.4,7.7
	c15.6,14.8,31.9,28.7,49.1,41.5c42.2,31.4,88.8,54.1,139.1,69c24.3,7.2,49,12.8,74.4,15.4c14,1.4,28,2.8,42,3.2
	c20.8,0.7,41.5-1,62.3-3.2c13.7-1.5,27.3-3.6,40.7-6.5c33.6-7.1,65.9-18.4,97-33.1c32.5-15.4,62.8-34.4,90.6-57.3
	c38.1-31.5,70.9-67.7,96.4-110.1c7.9-13.1,14.7-26.9,21.8-40.4c0.9-1.7,2.6-3.6,0.7-5.8c-3.1-1-5.3,1.1-7.7,2.3
	c-25.3,12.4-50.9,24.1-77.8,32.7c-4.6,1.5-8,4.3-10.8,8c-3.7,4.9-7.4,9.8-11.4,14.4c-31.4,36.6-67.9,67.2-110,90.7
	c-39.9,22.3-82.4,36.9-127.8,43.1c-16.4,2.3-32.8,3.6-49.4,3.4c-8.9-0.1-17.8,0.2-26.7-0.2c-8.8-0.4-17.7-1.1-26.5-2.3
	c-8.8-1.2-17.4-3.2-26.1-4.8c-29.6-5.4-57.9-15-85.2-27.6c-21.8-10.1-42.2-22.4-61.7-36.1c-4.4-3.1-8.9-4.7-14.4-4.7
	c-25.1,0.3-50.3,0.1-75.4,0.2C-2229.8-528.2-2232.2-527.9-2235-527.7z M-1598.1-1136.4c-3.1-3.4-4.8-5.5-6.7-7.4
	c-6.7-6.3-13.5-12.5-20.3-18.6c-33.9-30.1-71.3-54.9-112.8-73.2c-26.6-11.8-53.9-21.7-82.5-27.6c-12.6-2.6-25.1-5.4-37.9-6.6
	c-9.7-0.9-19.4-3.1-29.1-3.2c-24.8-0.3-49.6-1.3-74.4,1.3c-17.4,1.8-34.6,4.5-51.5,8.4c-30.1,7-59.4,16.5-87.5,29.8
	c-41.9,19.7-80.2,44.7-114.2,76.2c-34.9,32.3-64.4,68.9-87.3,110.7c-5.7,10.5-10.7,21.3-16,32c-0.8,1.6-1.6,3.4,1,5
	c1.4-0.5,3.2-1,4.8-1.8c4.6-2.4,9.2-4.9,13.7-7.4c20.7-11.5,42.6-20,64.8-28c4.6-1.7,8.2-4,10.6-8.2c0.6-1.1,1.4-2,2.1-3
	c17.5-25.3,39.1-46.2,66.5-60.8c5.4-2.9,10.4-6.5,15.4-10c9.1-6.3,17.9-13,27.1-18.9c20.4-13.1,42.1-23.9,64.7-32.7
	c20.3-7.9,41.2-13.4,62.5-18c12.3-2.6,24.8-3.9,37.2-5.2c9.7-1.1,19.6-0.9,29.4-1c17.5-0.2,35,0.1,52.2,2.9
	c18.4,2.9,36.7,6.7,54.6,11.9c35.9,10.5,69,26.7,100,47.4c2.5,1.7,5,3.5,7.7,5c1.5,0.9,3.4,1.6,5.1,1.7c7,0.4,14.1,0.8,21.1,0.8
	c23.9-0.1,47.8-0.4,71.7-0.7C-1604.2-1135.7-1602.1-1136-1598.1-1136.4z M-1546.6-795.7c1.7,0.4,2.3,0.8,2.8,0.6
	c2-0.6,4.1-1.3,6-2.1c18.7-7.9,36-18.2,52.5-29.9c2.5-1.8,4.8-3.8,7.2-5.7c2.7-2,3.8-4.7,3.7-8c-0.1-2.4,0-4.9-0.2-7.3
	c-1-12.5-2-25-3.1-37.5c-1.6-19.2-4.8-38.2-9.4-57c-2.8-11.3-6.2-22.4-9.5-33.5c-0.4-1.2-1.7-2.1-3.2-3.8c-1,2.5-1.8,4.1-2.3,5.8
	C-1516.8-914.8-1531.6-855.5-1546.6-795.7z M-2286.4-858.6c-4.6-0.4-4.6-0.3-6.4,0.5c-21.8,9.9-42.1,22.3-61.4,36.4
	c-4.2,3.1-5.8,6.7-5.4,11.7c0.7,9.1,0.9,18.3,2,27.4c2.1,18.2,4.1,36.4,8.7,54.2c3.8,14.8,8.2,29.4,12.4,44.1c0.6,2,0.9,4.3,3.8,4.9
	c0.5-0.6,1.3-1.2,1.5-1.9c14.8-57.3,29.6-114.7,44.3-172.1C-2286.7-855-2286.6-856.8-2286.4-858.6z"/>
<path class="st7" d="M-1917.2-1449.6c3.6,11.6,6.5,21.2,9.5,30.8c0.8,2.6,1.6,5.3,2.3,7.9c1.1,4.2,3.8,5.9,8.1,5.9
	c9.5,0,19,0.1,28.5,0.2c2.3,0,4.7,0.4,8.4,0.7c-2.2,2.1-3.4,3.4-4.7,4.4c-7.3,5.5-14.7,11-22.1,16.4c-6.8,5.1-6.9,5.2-4.2,13.8
	c2.9,9.3,5.9,18.6,8.8,28c0.3,1.1,0.5,2.3,0.7,3.3c-2.5,1.6-3.7-0.4-5-1.3c-7.7-5.6-15.2-11.3-22.8-17c-2.2-1.6-4.5-3.1-7.1-4.9
	c-1.9,1-3.8,1.8-5.5,3c-7.2,5.2-14.2,10.6-21.4,15.8c-2.7,2-5.4,3.8-9.3,6.5c2.8-15,8.8-27.7,11.7-41.7c-10.2-9.4-22-16.5-32.4-25.3
	c0.8-2.4,2.6-1.7,3.9-1.7c8.6-0.1,17.1-0.1,25.7-0.1c2.1,0,4.3,0,6.4-0.1c4.1-0.1,6.7-1.9,8-6.1c3.3-11.1,6.9-22.2,10.4-33.2
	C-1918.9-1445.6-1918.4-1446.6-1917.2-1449.6z"/>
<path class="st7" d="M-1865-1231.3c2.1-5.1,2.6-10.2,2.9-15.3c0.2-3.3-0.4-6.8,2.7-9.3c4.8,1,5.5,1.4,5.6,4.4
	c0.1,2.7-0.1,5.5-0.3,8.2c-0.7,8.5-1.3,17.1-2.2,25.6c-0.4,4.3-3.5,5.9-7.2,3.6c-2-1.2-3.7-3.2-5.1-5.1c-4.3-5.9-8.3-12.1-12.6-18.1
	c-1-1.4-2.5-2.4-4.3-4.1c-0.8,1.8-1.5,2.7-1.7,3.7c-0.7,5.1-1.4,10.3-2,15.5c-0.7,5.5-1.4,6-8.4,4.9c-0.1-5.4,0.5-10.8,0.9-16.3
	c0.4-5.2,1-10.3,1.5-15.5c0.2-2.1,0.4-4.3,1-6.3c1.1-3.9,5.7-5,8.7-2.2c1.3,1.2,2.4,2.8,3.5,4.3c3.5,5,6.9,10.1,10.4,15.1
	C-1869.9-1235.7-1868.7-1232.8-1865-1231.3z"/>
<path class="st7" d="M-1997.4-1223.2c3.6,3.8,6.7,7.1,9.5,10.2c-0.1,0.8,0,1.3-0.1,1.3c-1.9,0.8-3.9,1.5-6.2,2.3
	c-2.4-2.2-4.8-4.1-6.8-6.3c-3.5-4.1-7.5-4.8-12.3-2.5c-0.8,0.4-1.7,0.7-2.5,1c-2.6,4.1,1.2,8.5-1.1,13.1c-1.5,0.3-3.5,0.6-5.3,1
	c-3.9-9.5-9.6-35.1-9.4-42.3c8-2.5,16.2-5,24.8-4.8c12.5,0.2,18.7,11.7,12.4,22.6C-1995.1-1226.4-1996-1225.2-1997.4-1223.2z
	 M-2021.7-1240.8c-0.7,6,0.7,11.1,3.1,16.1c5.4,0.8,9.9-0.8,14.1-3.2c3.6-2,4.9-5.8,3.8-9.4c-1.1-3.7-4-6.1-8-6.4
	C-2013-1244.1-2017-1243-2021.7-1240.8z"/>
<path class="st7" d="M-2135.4-1198.9c1-2.6,3-3.7,6.4-3.7c7.2,11.2,14.6,22.6,21.8,33.6c-0.9,3.7-3.1,4.5-5.6,5
	c-0.6-0.3-1.3-0.5-1.6-0.9c-1.7-2.5-3.3-5.1-5.1-7.6c-1.2-1.7-2.6-3.3-3.8-4.8c-1.3,0.2-2.4,0-3.1,0.4c-4.2,2.5-8.3,5.1-12.4,7.8
	c-1.3,0.8-2.5,1.8-3.4,2.4c0.8,7.3,6.6,11.2,7.8,17.6c-1.8,1.2-3.5,2.3-5.2,3.4c-4.4-4.6-19.8-28-23.5-35.8c1.3-1.2,2.7-2.6,4.1-3.9
	c1.2,0.6,2.2,0.8,2.8,1.4c1.8,2.1,3.3,4.4,5,6.6c1.3,1.6,2.8,3.1,4.4,4.8c6.8-2.8,12.5-6.7,18.1-11.4
	C-2129.1-1189.9-2134.1-1193.6-2135.4-1198.9z"/>
<path class="st7" d="M-1702.3-1161.8c-6.4-4.7-12.6-8.5-19.5-11.4c-2.7,1.5-5.4,3-8.3,4.7c-2-1.3-3.9-2.5-6.3-4.1c1.3-1.3,2-2.3,3-3
	c10.1-6.9,20.1-13.8,30.3-20.6c2-1.3,4.1-2.6,6.8-1.8c4.1,1.3,5.9,3.6,5.9,8.1c0,2.1-0.1,4.3-0.3,6.4c-1.2,10-2.4,20-3.6,30
	c-0.1,0.9-0.3,1.8-0.5,2.7c-0.5,1.8-3,2.6-4.4,1.3c-1-1-2.2-2.3-2.4-3.6C-1702.3-1155.7-1702.2-1158.5-1702.3-1161.8z
	 M-1701.2-1170.1c2.7-6.4,3.1-12.3,2.5-19.7c-6.6,3-11.6,6.3-15.8,12.1C-1710.5-1174.5-1707-1171.3-1701.2-1170.1z"/>
<path class="st7" d="M-1950.7-1252.5c-2.7,3.8-1.2,7.2-0.3,10.4c6,3.5,13-1.3,18.6,2.9c0.2,0.1,0.1,0.5,0.2,1.4
	c-0.8,0.4-1.7,1.3-2.7,1.5c-3.3,0.6-6.6,1.4-9.9,1.5c-5.3,0.1-7.4,1.7-6.4,8.3c0.1,0.6,0.3,1.2,0.6,1.7c0.3,0.5,0.7,1,1.2,1.7
	c4.9,1.5,10.1,0.4,15.2,0.4c2.1,0,4.3-0.6,6.4-0.4c0.9,0.1,2.3,1.2,2.5,2c0.2,0.9-0.6,2.5-1.4,3.1c-1.2,0.8-2.8,1.2-4.3,1.5
	c-1.8,0.3-3.7,0.3-5.5,0.3c-7.3,0-14.6,0-22.3,0c-0.3-1.6-0.8-3.4-1-5.1c-0.6-7.9-1.2-15.8-1.7-23.7c-0.2-3.3-0.2-6.7,0-10.1
	c0.1-2,1.6-3.3,3.6-3.6c1.8-0.2,3.7-0.2,5.5-0.3c6.4-0.4,12.8-0.9,19.2-1.2c0.9-0.1,1.9-0.1,2.7,0.3c0.7,0.4,1.7,1.3,1.7,1.9
	c-0.1,1-0.8,2.7-1.5,2.9c-4.8,0.9-9.6,1.5-14.5,2.1C-1946.7-1252.8-1948.8-1252.7-1950.7-1252.5z"/>
<path class="st7" d="M-2085.7-1217.5c1,2.4,2.1,5.2,3.3,8.3c2.5-0.3,4.6-0.3,6.5-0.9c3.2-1.1,6.2-2.6,9.3-3.9
	c2.8-1.1,4.9-0.7,5.5,1.2c0.6,2.3-0.9,3.3-2.7,4c-1.4,0.6-2.8,1.2-4.2,1.7c-2,0.8-4,1.5-5.9,2.4c-1.4,0.6-2.6,1.5-4,2.3
	c-0.6,4.5,1.1,7.7,4.1,10.9c5.6-1,10.3-3.8,15.4-5.6c2-0.7,4-1.5,6.1-1.8c0.8-0.1,1.9,1.2,2.4,2.2c0.3,0.6-0.2,1.7-0.5,2.5
	c-0.2,0.5-0.8,1-1.3,1.2c-9,3.7-18,7.3-26.9,11c-4-5.7-14-29-16.7-38.9c0.8-0.6,1.5-1.7,2.5-2.1c7.3-3.2,14.6-6.3,21.9-9.3
	c1.1-0.5,2.5-0.9,3.5-0.6s1.9,1.4,2.3,2.4c0.3,0.6-0.3,2-0.8,2.3c-3.2,1.7-6.7,3-9.9,4.6
	C-2079.2-1221.9-2083.1-1221.5-2085.7-1217.5z"/>
<path class="st7" d="M-1781.3-1232.7c-3.3,2.4-5.4,2.4-7.6,0.6c-1.9-1.5-3.7-3.3-5.8-4.4c-6.1-3-11.9-2.2-17.2,1.9
	c-5,3.8-7.2,11.2-4.9,17.5c2.2,6,6.7,9.6,13,10.1c3.6,0.3,7.2-0.7,11.2-1.1c0.8,1.5,1.7,3,2.7,4.6c-2.7,3.6-6.3,3.9-10,4
	c-8.4,0.1-15.7-2.7-21.2-9.1c-9.5-11-4.3-31.2,9.3-35.1c9.9-2.8,19.5-1.4,27.3,6.3C-1783.5-1236.3-1782.6-1234.6-1781.3-1232.7z"/>
<path class="st7" d="M-1748.7-1225.9c2.6,1.2,4.2,1.9,5.7,2.6c-0.7,6.1-7.8,23-16.2,38.8c-2.5,0.6-4.5-0.2-6.5-2.9
	c0.3-1.3,0.5-3.2,1.3-4.8C-1758.9-1203-1755.2-1214.7-1748.7-1225.9z"/>
<g>
	<path d="M-950.3-526.1c0.9-4.1,1.6-7.1,2.3-10c4.6-18.1,9-36.2,14-54.2c1.5-5.5,0.7-9.9-1.7-14.9c-7.3-14.9-13.7-30.1-19.4-45.6
		c-8.4-23-14.8-46.6-19.9-70.6c-3.1-14.4-5.3-28.9-7-43.5c-2.4-19.8-2.6-39.7-2.3-59.7c0.4-29.2,4.3-58,10.2-86.5
		c11.3-54.5,31.9-105.4,60.8-152.9c19.4-31.8,42.5-60.7,69.1-86.9c26.3-25.9,54.9-48.9,86.1-68.7c24.9-15.7,51.1-29,78.4-40.2
		c22.1-9,44.8-16.6,68.1-21.9c19.1-4.4,38.3-7.7,57.7-10.4c25.9-3.6,51.9-3.8,77.9-3.6c6.4,0,12.9-0.1,19.3,0.4
		c9.1,0.7,18.2,1.7,27.3,2.8c5.5,0.6,10.9,1.8,16.3,2.3c16.8,1.7,33.1,5.8,49.3,10c26.7,6.9,52.8,15.7,77.9,27.1
		c43.5,19.8,83.8,44.7,119.7,76.3c13.6,11.9,26.5,24.6,39.3,37.4c4.3,4.2,8.5,6.1,14.5,6c23.6-0.3,47.2-0.2,70.8-0.2
		c9.9,0,10.1,0.2,7.6,9.8c-6.5,25.5-13,51-19.7,76.4c-1.1,4.1-1,7.6,1.1,11.4c14.2,25.6,24.3,52.8,33.2,80.5
		c7.6,23.6,12.8,47.8,16.5,72.4c4.2,27.6,6.3,55.4,5.2,83.3c-0.5,12.2-2,24.4-3,36.6c-1.8,21.1-6.2,41.7-11,62.3
		c-5,21.5-12.1,42.4-20.3,62.9c-24.1,60.6-59.3,114-105.2,160.3c-31.2,31.4-65.9,58.6-104.5,80.7c-26.4,15.1-53.6,28.3-82,38.9
		c-23.5,8.8-47.6,15.7-72.4,19.9c-14.5,2.4-28.9,5.2-43.5,6.9c-13.7,1.5-27.4,2.8-41.2,2.4c-12.3-0.3-24.5,0.2-36.8-0.3
		c-9.5-0.4-18.9-1.7-28.3-2.8c-10-1.2-20-2.6-29.9-4.3c-26-4.3-51.4-10.9-76.3-19.6c-56.1-19.6-106.8-48.7-153.3-85.5
		c-28-22.2-52.6-47.7-75-75.5c-0.8-1-1.6-1.9-2.3-2.9c-2.9-4.6-6.9-6.2-12.4-6.1c-15.9,0.3-31.9,0.1-47.8,0.1
		C-944.7-525.8-946.8-526-950.3-526.1z M-62.3-1107.1c-4.1-2.9-7.8-2.1-11.4-2.1c-44.8-0.1-89.5-0.4-134.3,0
		c-31.9,0.3-63.7-1.6-95.6,1.3c-7,0.6-14.1,0.9-20.9,2.5c-40,9.2-71.7,30.6-94.1,65.2c-9.7,15-16.5,31.4-20.8,48.8
		c-8.1,33-16,66-24,99c-11.4,46.7-23,93.3-34.2,140c-7.5,31.5-16.3,62.8-22,94.7c-2.8,15.7-2.5,31.1,1.5,46.4
		c4.3,16.1,12.2,30,25.6,40.4c7.5,5.8,15.8,10.6,24.7,14c13.3,5,27.1,7.6,41.3,7.7c32.5,0.1,65,0.1,97.5,0.1
		c9.5,0,18.9-0.3,28.4-1.5c20.1-2.6,38.7-9.2,55.7-19.9c23-14.5,40.9-34,54.5-57.4c9.7-16.8,16.2-35,22-53.4
		c0.8-2.5,1.9-5.2,0.9-7.6c-2.9-2-5.1-0.3-7.4,0.4c-15.2,4.6-30.5,8.9-46.2,11.6c-12.9,2.2-25.8,4.7-38.8,6.7
		c-7.2,1.1-14.6,2-21.9,2.1c-25.4,0.5-50.9,0.7-76.3,0.9c-4,0-8-0.1-11.9-0.5c-11.5-1.2-18.2-8.6-18.6-20.1c-0.2-6.2,1.5-12.1,3-18
		c8.1-32,16.3-64.1,24.4-96.1c14.8-58.4,29.5-116.9,44.2-175.3c0.7-2.7,1-5.4,3.2-7.2c6.2-0.8,84.7-1.5,95.7-0.8
		c1.2,0.1,2.3,0.5,3.4,0.7c1.2,3.4-0.3,6.3-1,9.2c-3.4,14-7,27.9-10.5,41.8c-13.4,53.4-26.8,106.8-40.2,160.2
		c-6.5,25.8-13.1,51.6-19.6,77.4c-0.5,1.9-0.4,4-0.6,6.4c1.7,0.3,2.9,0.7,4,0.6c8.5-0.7,17.1-1.2,25.5-2.5c13-2,25.9-4.3,38.8-6.9
		c17.7-3.5,35.1-8.3,52.3-13.8c3.9-1.2,6.4-3.3,7.3-7.3c0.5-2.4,1.3-4.7,1.9-7.1c3.4-13.3,6.7-26.7,10.1-40.1
		c14.1-56.1,28.1-112.2,42.2-168.2c12.4-49.6,24.9-99.1,37.2-148.7C-65.4-1091.2-62.7-1098.8-62.3-1107.1z M-916.4-549.6
		c3.7,0.2,6.1,0.4,8.5,0.4c47.2,0.3,94.4,0.6,141.6,0.7c8.6,0,17.1-0.6,25.7-0.6c20.5-0.1,41.1-0.2,61.6-0.1
		c13.3,0.1,26.2-2.4,38.7-6.6c27.7-9.5,50.4-26.2,69-48.6c15.5-18.7,25.7-40.2,31.6-63.6c4.5-17.8,8.8-35.6,13.2-53.5
		c12.8-52.6,25.6-105.2,38.4-157.8c8.3-34.2,16.8-68.3,24.8-102.6c3.3-14,5.5-28.3,4.6-42.8c-0.7-12.3-3.1-24.3-8.7-35.4
		c-13.1-25.4-34.3-40.1-61.9-46c-12.6-2.7-25.5-3.1-38.4-3.1c-29.1,0-58.2-1-87.3,0.9c-8.9,0.6-17.8,0.8-26.5,2.5
		c-52.5,10.4-89.5,40.5-111.7,89c-7.1,15.6-11,32.4-15.9,48.8c-0.6,1.8,0,4,0,6.6c2.8-0.5,4.8-0.7,6.9-1.3c9.7-2.6,19.4-5.5,29.2-8
		c20.7-5.3,41.8-9.2,62.9-12.5c7.8-1.2,15.8-1.6,23.7-2.2c5.8-0.4,11.6-0.6,17.5-0.6c19.9,0,39.8-0.1,59.8,0.3
		c10.9,0.2,18.4,7.7,19,18.4c0.3,5.1-0.2,10.5-1.4,15.4c-6.8,27.9-14,55.8-21.1,83.7c-0.6,2.3-1.9,4.3-2.9,6.4
		c-2.7,0.2-4.8,0.6-6.9,0.6c-29.7,0.1-59.5,0.1-89.2,0.1c-1.8,0-3.7-0.2-5.5-0.5c-1.7-0.3-2.6-1.7-2.5-3.3c0.2-1.8,0.7-3.6,1.1-5.4
		c7.1-28.5,14.3-57,21.4-85.5c0.4-1.5,0.8-3,1-4.5c0.3-2.4-1.4-4-4-3.8c-0.9,0.1-1.8,0.3-2.7,0.4c-18.5,2.6-36.9,5.8-54.9,10.2
		c-18.1,4.5-36,9.7-54,14.5c-4.4,1.2-7.4,3.5-8.6,8.3c-7.5,30-15.4,59.8-22.9,89.8c-3,12-3.8,24.2-1,36.4c3.4,15,10,28.2,21.6,38.6
		c15.1,13.5,33.4,19.2,52.9,20.9c16.1,1.5,32.4,1.4,48.7,1.5c22.1,0.2,44.1,0,66.2,0.1c2.6,0,5.5-0.7,8.4,2
		c-0.6,2.9-1.2,6.1-2.1,9.3c-4.5,17.5-8.9,35-13.5,52.4c-3.7,13.9-1.7,12.7-16.3,12.7c-65,0-130,0-194.9,0c-3.1,0-6.1,0-9.2,0.1
		c-3.1,0.1-5.3,1.4-6,4.6c-0.3,1.2-0.8,2.3-1.1,3.5c-8.6,33.5-17.2,67-25.7,100.5C-915.8-555.3-915.9-552.9-916.4-549.6z
		 M-807.4-524.3c-0.1,4.4,2.5,5.9,4.4,7.7c15.6,14.8,31.9,28.7,49.1,41.5c42.2,31.4,88.8,54.1,139.1,69c24.3,7.2,49,12.8,74.4,15.4
		c14,1.4,28,2.8,42,3.2c20.8,0.7,41.5-1,62.3-3.2c13.7-1.5,27.3-3.6,40.7-6.5c33.6-7.1,65.9-18.4,97-33.1
		c32.5-15.4,62.8-34.4,90.6-57.3c38.1-31.5,70.9-67.7,96.4-110.1c7.9-13.1,14.7-26.9,21.8-40.4c0.9-1.7,2.6-3.6,0.7-5.8
		c-3.1-1-5.3,1.1-7.7,2.3c-25.3,12.4-50.9,24.1-77.8,32.7c-4.6,1.5-8,4.3-10.8,8c-3.7,4.9-7.4,9.8-11.4,14.4
		c-31.4,36.6-67.9,67.2-110,90.7c-39.9,22.3-82.4,36.9-127.8,43.1c-16.4,2.3-32.8,3.6-49.4,3.4c-8.9-0.1-17.8,0.2-26.7-0.2
		c-8.8-0.4-17.7-1.1-26.5-2.3c-8.8-1.2-17.4-3.2-26.1-4.8c-29.6-5.4-57.9-15-85.2-27.6c-21.8-10.1-42.2-22.4-61.7-36.1
		c-4.4-3.1-8.9-4.7-14.4-4.7c-25.1,0.3-50.3,0.1-75.4,0.2C-802.2-524.8-804.6-524.5-807.4-524.3z M-170.5-1132.9
		c-3.1-3.4-4.8-5.5-6.7-7.4c-6.7-6.3-13.5-12.5-20.3-18.6c-33.9-30.1-71.3-54.9-112.8-73.2c-26.6-11.8-53.9-21.7-82.5-27.6
		c-12.6-2.6-25.1-5.4-37.9-6.6c-9.7-0.9-19.4-3.1-29.1-3.2c-24.8-0.3-49.6-1.3-74.4,1.3c-17.4,1.8-34.6,4.5-51.5,8.4
		c-30.1,7-59.4,16.5-87.5,29.8c-41.9,19.7-80.2,44.7-114.2,76.2c-34.9,32.3-64.4,68.9-87.3,110.7c-5.7,10.5-10.7,21.3-16,32
		c-0.8,1.6-1.6,3.4,1,5c1.4-0.5,3.2-1,4.8-1.8c4.6-2.4,9.2-4.9,13.7-7.4c20.7-11.5,42.6-20,64.8-28c4.6-1.7,8.2-4,10.6-8.2
		c0.6-1.1,1.4-2,2.1-3c17.5-25.3,39.1-46.2,66.5-60.8c5.4-2.9,10.4-6.5,15.4-10c9.1-6.3,17.9-13,27.1-18.9
		c20.4-13.1,42.1-23.9,64.7-32.7c20.3-7.9,41.2-13.4,62.5-18c12.3-2.6,24.8-3.9,37.2-5.2c9.7-1.1,19.6-0.9,29.4-1
		c17.5-0.2,35,0.1,52.2,2.9c18.4,2.9,36.7,6.7,54.6,11.9c35.9,10.5,69,26.7,100,47.4c2.5,1.7,5,3.5,7.7,5c1.5,0.9,3.4,1.6,5.1,1.7
		c7,0.4,14.1,0.8,21.1,0.8c23.9-0.1,47.8-0.4,71.7-0.7C-176.6-1132.2-174.5-1132.6-170.5-1132.9z M-119-792.3
		c1.7,0.4,2.3,0.8,2.8,0.6c2-0.6,4.1-1.3,6-2.1c18.7-7.9,36-18.2,52.5-29.9c2.5-1.8,4.8-3.8,7.2-5.7c2.7-2,3.8-4.7,3.7-8
		c-0.1-2.4,0-4.9-0.2-7.3c-1-12.5-2-25-3.1-37.5c-1.6-19.2-4.8-38.2-9.4-57c-2.8-11.3-6.2-22.4-9.5-33.5c-0.4-1.2-1.7-2.1-3.2-3.8
		c-1,2.5-1.8,4.1-2.3,5.8C-89.1-911.3-104-852.1-119-792.3z M-858.8-855.1c-4.6-0.4-4.6-0.3-6.4,0.5c-21.8,9.9-42.1,22.3-61.4,36.4
		c-4.2,3.1-5.8,6.7-5.4,11.7c0.7,9.1,0.9,18.3,2,27.4c2.1,18.2,4.1,36.4,8.7,54.2c3.8,14.8,8.2,29.4,12.4,44.1
		c0.6,2,0.9,4.3,3.8,4.9c0.5-0.6,1.3-1.2,1.5-1.9c14.8-57.3,29.6-114.7,44.3-172.1C-859.1-851.6-859-853.4-858.8-855.1z"/>
	<path d="M-489.6-1446.2c3.6,11.6,6.5,21.2,9.5,30.8c0.8,2.6,1.6,5.3,2.3,7.9c1.1,4.2,3.8,5.9,8.1,5.9c9.5,0,19,0.1,28.5,0.2
		c2.3,0,4.7,0.4,8.4,0.7c-2.2,2.1-3.4,3.4-4.7,4.4c-7.3,5.5-14.7,11-22.1,16.4c-6.8,5.1-6.9,5.2-4.2,13.8c2.9,9.3,5.9,18.6,8.8,28
		c0.3,1.1,0.5,2.3,0.7,3.3c-2.5,1.6-3.7-0.4-5-1.3c-7.7-5.6-15.2-11.3-22.8-17c-2.2-1.6-4.5-3.1-7.1-4.9c-1.9,1-3.8,1.8-5.5,3
		c-7.2,5.2-14.2,10.6-21.4,15.8c-2.7,2-5.4,3.8-9.3,6.5c2.8-15,8.8-27.7,11.7-41.7c-10.2-9.4-22-16.5-32.4-25.3
		c0.8-2.4,2.6-1.7,3.9-1.7c8.6-0.1,17.1-0.1,25.7-0.1c2.1,0,4.3,0,6.4-0.1c4.1-0.1,6.7-1.9,8-6.1c3.3-11.1,6.9-22.2,10.4-33.2
		C-491.3-1442.1-490.8-1443.2-489.6-1446.2z"/>
	<path d="M-437.4-1227.8c2.1-5.1,2.6-10.2,2.9-15.3c0.2-3.3-0.4-6.8,2.7-9.3c4.8,1,5.5,1.4,5.6,4.4c0.1,2.7-0.1,5.5-0.3,8.2
		c-0.7,8.5-1.3,17.1-2.2,25.6c-0.4,4.3-3.5,5.9-7.2,3.6c-2-1.2-3.7-3.2-5.1-5.1c-4.3-5.9-8.3-12.1-12.6-18.1c-1-1.4-2.5-2.4-4.3-4.1
		c-0.8,1.8-1.5,2.7-1.7,3.7c-0.7,5.1-1.4,10.3-2,15.5c-0.7,5.5-1.4,6-8.4,4.9c-0.1-5.4,0.5-10.8,0.9-16.3c0.4-5.2,1-10.3,1.5-15.5
		c0.2-2.1,0.4-4.3,1-6.3c1.1-3.9,5.7-5,8.7-2.2c1.3,1.2,2.4,2.8,3.5,4.3c3.5,5,6.9,10.1,10.4,15.1
		C-442.3-1232.3-441.1-1229.3-437.4-1227.8z"/>
	<path d="M-569.8-1219.8c3.6,3.8,6.7,7.1,9.5,10.2c-0.1,0.8,0,1.3-0.1,1.3c-1.9,0.8-3.9,1.5-6.2,2.3c-2.4-2.2-4.8-4.1-6.8-6.3
		c-3.5-4.1-7.5-4.8-12.3-2.5c-0.8,0.4-1.7,0.7-2.5,1c-2.6,4.1,1.2,8.5-1.1,13.1c-1.5,0.3-3.5,0.6-5.3,1c-3.9-9.5-9.6-35.1-9.4-42.3
		c8-2.5,16.2-5,24.8-4.8c12.5,0.2,18.7,11.7,12.4,22.6C-567.4-1222.9-568.4-1221.7-569.8-1219.8z M-594.1-1237.4
		c-0.7,6,0.7,11.1,3.1,16.1c5.4,0.8,9.9-0.8,14.1-3.2c3.6-2,4.9-5.8,3.8-9.4c-1.1-3.7-4-6.1-8-6.4
		C-585.4-1240.7-589.4-1239.6-594.1-1237.4z"/>
	<path d="M-707.8-1195.4c1-2.6,3-3.7,6.4-3.7c7.2,11.2,14.6,22.6,21.8,33.6c-0.9,3.7-3.1,4.5-5.6,5c-0.6-0.3-1.3-0.5-1.6-0.9
		c-1.7-2.5-3.3-5.1-5.1-7.6c-1.2-1.7-2.6-3.3-3.8-4.8c-1.3,0.2-2.4,0-3.1,0.4c-4.2,2.5-8.3,5.1-12.4,7.8c-1.3,0.8-2.5,1.8-3.4,2.4
		c0.8,7.3,6.6,11.2,7.8,17.6c-1.8,1.2-3.5,2.3-5.2,3.4c-4.4-4.6-19.8-28-23.5-35.8c1.3-1.2,2.7-2.6,4.1-3.9c1.2,0.6,2.2,0.8,2.8,1.4
		c1.8,2.1,3.3,4.4,5,6.6c1.3,1.6,2.8,3.1,4.4,4.8c6.8-2.8,12.5-6.7,18.1-11.4C-701.5-1186.5-706.5-1190.2-707.8-1195.4z"/>
	<path d="M-274.7-1158.3c-6.4-4.7-12.6-8.5-19.5-11.4c-2.7,1.5-5.4,3-8.3,4.7c-2-1.3-3.9-2.5-6.3-4.1c1.3-1.3,2-2.3,3-3
		c10.1-6.9,20.1-13.8,30.3-20.6c2-1.3,4.1-2.6,6.8-1.8c4.1,1.3,5.9,3.6,5.9,8.1c0,2.1-0.1,4.3-0.3,6.4c-1.2,10-2.4,20-3.6,30
		c-0.1,0.9-0.3,1.8-0.5,2.7c-0.5,1.8-3,2.6-4.4,1.3c-1-1-2.2-2.3-2.4-3.6C-274.7-1152.3-274.6-1155-274.7-1158.3z M-273.6-1166.6
		c2.7-6.4,3.1-12.3,2.5-19.7c-6.6,3-11.6,6.3-15.8,12.1C-282.9-1171.1-279.4-1167.8-273.6-1166.6z"/>
	<path d="M-523.1-1249c-2.7,3.8-1.2,7.2-0.3,10.4c6,3.5,13-1.3,18.6,2.9c0.2,0.1,0.1,0.5,0.2,1.4c-0.8,0.4-1.7,1.3-2.7,1.5
		c-3.3,0.6-6.6,1.4-9.9,1.5c-5.3,0.1-7.4,1.7-6.4,8.3c0.1,0.6,0.3,1.2,0.6,1.7s0.7,1,1.2,1.7c4.9,1.5,10.1,0.4,15.2,0.4
		c2.1,0,4.3-0.6,6.4-0.4c0.9,0.1,2.3,1.2,2.5,2c0.2,0.9-0.6,2.5-1.4,3.1c-1.2,0.8-2.8,1.2-4.3,1.5c-1.8,0.3-3.7,0.3-5.5,0.3
		c-7.3,0-14.6,0-22.3,0c-0.3-1.6-0.8-3.4-1-5.1c-0.6-7.9-1.2-15.8-1.7-23.7c-0.2-3.3-0.2-6.7,0-10.1c0.1-2,1.6-3.3,3.6-3.6
		c1.8-0.2,3.7-0.2,5.5-0.3c6.4-0.4,12.8-0.9,19.2-1.2c0.9-0.1,1.9-0.1,2.7,0.3c0.7,0.4,1.7,1.3,1.7,1.9c-0.1,1-0.8,2.7-1.5,2.9
		c-4.8,0.9-9.6,1.5-14.5,2.1C-519-1249.4-521.2-1249.2-523.1-1249z"/>
	<path d="M-658.1-1214.1c1,2.4,2.1,5.2,3.3,8.3c2.5-0.3,4.6-0.3,6.5-0.9c3.2-1.1,6.2-2.6,9.3-3.9c2.8-1.1,4.9-0.7,5.5,1.2
		c0.6,2.3-0.9,3.3-2.7,4c-1.4,0.6-2.8,1.2-4.2,1.7c-2,0.8-4,1.5-5.9,2.4c-1.4,0.6-2.6,1.5-4,2.3c-0.6,4.5,1.1,7.7,4.1,10.9
		c5.6-1,10.3-3.8,15.4-5.6c2-0.7,4-1.5,6.1-1.8c0.8-0.1,1.9,1.2,2.4,2.2c0.3,0.6-0.2,1.7-0.5,2.5c-0.2,0.5-0.8,1-1.3,1.2
		c-9,3.7-18,7.3-26.9,11c-4-5.7-14-29-16.7-38.9c0.8-0.6,1.5-1.7,2.5-2.1c7.3-3.2,14.6-6.3,21.9-9.3c1.1-0.5,2.5-0.9,3.5-0.6
		s1.9,1.4,2.3,2.4c0.3,0.6-0.3,2-0.8,2.3c-3.2,1.7-6.7,3-9.9,4.6C-651.6-1218.5-655.5-1218-658.1-1214.1z"/>
	<path d="M-353.7-1229.3c-3.3,2.4-5.4,2.4-7.6,0.6c-1.9-1.5-3.7-3.3-5.8-4.4c-6.1-3-11.9-2.2-17.2,1.9c-5,3.8-7.2,11.2-4.9,17.5
		c2.2,6,6.7,9.6,13,10.1c3.6,0.3,7.2-0.7,11.2-1.1c0.8,1.5,1.7,3,2.7,4.6c-2.7,3.6-6.3,3.9-10,4c-8.4,0.1-15.7-2.7-21.2-9.1
		c-9.5-11-4.3-31.2,9.3-35.1c9.9-2.8,19.5-1.4,27.3,6.3C-355.9-1232.8-355-1231.2-353.7-1229.3z"/>
	<path d="M-321.1-1222.5c2.6,1.2,4.2,1.9,5.7,2.6c-0.7,6.1-7.8,23-16.2,38.8c-2.5,0.6-4.5-0.2-6.5-2.9c0.3-1.3,0.5-3.2,1.3-4.8
		C-331.3-1199.6-327.6-1211.2-321.1-1222.5z"/>
</g>
<rect x="-1254.2" y="2178.6" class="st7" width="2048" height="2048"/>
<g>
	<path d="M-1004.5,3744.1c1.5-6.6,2.5-11.4,3.7-16.1c7.5-29.2,14.6-58.5,22.7-87.5c2.5-8.9,1.2-16-2.7-24
		c-11.7-24-22.2-48.5-31.3-73.6c-13.6-37.2-23.8-75.3-32.1-113.9c-5-23.2-8.5-46.6-11.3-70.2c-3.8-32-4.2-64.1-3.8-96.3
		c0.7-47.1,6.9-93.6,16.4-139.6c18.2-88,51.4-170.1,98-246.7c31.3-51.4,68.6-97.9,111.4-140.2c42.4-41.8,88.6-79,138.9-110.8
		c40.2-25.4,82.5-46.9,126.5-64.8c35.7-14.6,72.2-26.7,109.8-35.4c30.8-7.1,61.8-12.4,93.1-16.8c41.8-5.9,83.7-6.1,125.7-5.9
		c10.4,0.1,20.8-0.1,31.2,0.7c14.7,1.1,29.4,2.8,44.1,4.5c8.8,1,17.5,2.9,26.4,3.8c27.1,2.8,53.4,9.4,79.6,16.2
		c43.1,11.2,85.2,25.3,125.7,43.8c70.2,31.9,135.2,72.1,193.2,123.1c21.9,19.2,42.7,39.8,63.3,60.4c6.9,6.9,13.8,9.8,23.4,9.7
		c38.1-0.5,76.2-0.3,114.3-0.2c16,0,16.3,0.3,12.3,15.9c-10.4,41.2-21,82.3-31.7,123.4c-1.7,6.6-1.6,12.3,1.8,18.4
		c22.9,41.2,39.2,85.2,53.6,130c12.3,38.2,20.6,77.2,26.7,116.8c6.8,44.6,10.1,89.4,8.4,134.5c-0.7,19.7-3.2,39.4-4.8,59.1
		c-2.8,34.1-10.1,67.3-17.8,100.5c-8.1,34.7-19.5,68.3-32.7,101.4c-38.9,97.8-95.7,184-169.8,258.6
		c-50.4,50.7-106.4,94.5-168.6,130.2c-42.5,24.4-86.4,45.7-132.4,62.8c-38,14.2-76.8,25.3-116.8,32.1c-23.3,3.9-46.6,8.5-70.1,11.1
		c-22.1,2.4-44.2,4.5-66.6,3.9c-19.8-0.5-39.6,0.3-59.3-0.5c-15.3-0.6-30.5-2.7-45.6-4.6c-16.1-2-32.3-4.2-48.3-6.9
		c-41.9-7-82.9-17.7-123.1-31.7c-90.5-31.6-172.4-78.5-247.4-138c-45.2-35.9-84.9-77-121-121.9c-1.2-1.5-2.6-3-3.7-4.7
		c-4.6-7.5-11.1-10-19.9-9.9c-25.7,0.5-51.4,0.2-77.2,0.1C-995.5,3744.5-998.9,3744.3-1004.5,3744.1z M428.5,2806.4
		c-6.5-4.6-12.7-3.4-18.5-3.4c-72.2-0.1-144.5-0.6-216.7,0c-51.4,0.5-102.9-2.7-154.2,2.1c-11.3,1-22.8,1.5-33.8,4
		c-64.5,14.9-115.7,49.4-151.9,105.2c-15.7,24.3-26.6,50.7-33.5,78.8c-13,53.2-25.8,106.5-38.8,159.8
		c-18.4,75.3-37.1,150.5-55.1,225.9c-12.2,50.9-26.3,101.3-35.4,152.9c-4.5,25.3-4.1,50.2,2.5,74.9c6.9,25.9,19.7,48.5,41.3,65.2
		c12.2,9.4,25.4,17.1,39.9,22.5c21.4,8.1,43.7,12.3,66.6,12.4c52.4,0.2,104.9,0.2,157.3,0.2c15.3,0,30.5-0.5,45.8-2.5
		c32.5-4.2,62.4-14.8,89.9-32.1c37.1-23.4,66-54.8,88-92.7c15.7-27.1,26.2-56.4,35.5-86.1c1.3-4,3-8.3,1.4-12.3
		c-4.7-3.2-8.2-0.5-11.9,0.6c-24.6,7.4-49.2,14.4-74.6,18.8c-20.9,3.6-41.7,7.6-62.7,10.8c-11.7,1.8-23.5,3.2-35.3,3.4
		c-41,0.8-82.1,1.1-123.2,1.5c-6.4,0.1-12.9-0.2-19.3-0.8c-18.6-2-29.3-13.9-29.9-32.4c-0.3-10.1,2.3-19.6,4.8-29.1
		c13.1-51.7,26.3-103.4,39.4-155.1c23.8-94.3,47.7-188.6,71.4-283c1.1-4.3,1.7-8.7,5.2-11.7c10-1.2,136.8-2.4,154.4-1.3
		c1.9,0.1,3.8,0.8,5.5,1.2c1.9,5.5-0.4,10.2-1.6,14.9c-5.5,22.5-11.3,45-17,67.5c-21.7,86.2-43.3,172.4-65,258.6
		c-10.5,41.7-21.1,83.3-31.6,124.9c-0.8,3.1-0.7,6.5-1,10.3c2.8,0.5,4.7,1.2,6.5,1c13.8-1.2,27.6-1.9,41.2-4
		c20.9-3.2,41.8-6.9,62.6-11.1c28.6-5.7,56.6-13.5,84.3-22.3c6.3-2,10.3-5.3,11.8-11.8c0.9-3.9,2.1-7.6,3.1-11.4
		c5.4-21.5,10.8-43.1,16.3-64.6c22.7-90.5,45.4-181,68.1-271.5c20.1-80,40.2-159.9,60-240C423.6,2832.1,427.9,2819.9,428.5,2806.4z
		 M-949.7,3706.2c6,0.3,9.9,0.7,13.7,0.7c76.2,0.4,152.3,0.9,228.5,1.2c13.8,0.1,27.7-0.9,41.5-1c33.1-0.2,66.3-0.3,99.4-0.1
		c21.5,0.1,42.3-3.8,62.5-10.7c44.7-15.3,81.3-42.3,111.3-78.4c25-30.2,41.4-64.8,51.1-102.7c7.3-28.7,14.3-57.5,21.3-86.3
		c20.7-84.9,41.4-169.8,62-254.7c13.4-55.2,27.1-110.3,40-165.5c5.3-22.6,8.8-45.6,7.5-69c-1.1-19.9-4.9-39.3-14.1-57.1
		c-21.1-41-55.4-64.7-99.9-74.2c-20.4-4.4-41.2-5-61.9-5c-47,0-93.9-1.7-140.9,1.4c-14.3,0.9-28.7,1.3-42.7,4.1
		c-84.7,16.8-144.5,65.4-180.2,143.7c-11.5,25.2-17.8,52.3-25.7,78.8c-0.9,3,0,6.5,0,10.7c4.5-0.8,7.8-1.2,11.1-2.1
		c15.7-4.2,31.3-8.9,47.1-12.9c33.5-8.6,67.4-14.8,101.5-20.2c12.6-2,25.5-2.7,38.3-3.6c9.4-0.7,18.8-1,28.2-1
		c32.1,0,64.3-0.1,96.4,0.5c17.5,0.4,29.7,12.4,30.6,29.8c0.4,8.3-0.4,16.9-2.3,24.9c-11,45.1-22.5,90-34,135
		c-0.9,3.7-3.1,7-4.6,10.4c-4.3,0.4-7.7,1-11.2,1c-48,0.1-96,0.2-143.9,0.2c-2.9,0-5.9-0.3-8.8-0.8c-2.7-0.5-4.3-2.7-4-5.4
		c0.3-2.9,1.1-5.8,1.8-8.6c11.5-46,23.1-92,34.6-137.9c0.6-2.4,1.3-4.8,1.6-7.2c0.5-3.9-2.3-6.4-6.4-6.1c-1.5,0.1-2.9,0.5-4.4,0.7
		c-29.8,4.2-59.5,9.3-88.7,16.5s-58.1,15.6-87.2,23.4c-7.1,1.9-12,5.6-13.9,13.4c-12.2,48.4-24.9,96.6-37,144.9
		c-4.8,19.3-6.1,39-1.7,58.8c5.5,24.3,16.1,45.5,34.9,62.3c24.3,21.7,53.9,30.9,85.3,33.7c26,2.3,52.3,2.2,78.5,2.5
		c35.6,0.4,71.2,0,106.8,0.1c4.3,0,8.9-1.2,13.5,3.2c-1,4.7-2,9.9-3.3,15.1c-7.2,28.2-14.4,56.5-21.8,84.6
		c-5.9,22.5-2.8,20.5-26.2,20.5c-104.9,0.1-209.7,0-314.6,0.1c-4.9,0-9.9,0-14.8,0.2c-5,0.1-8.5,2.2-9.6,7.4
		c-0.4,1.9-1.2,3.8-1.7,5.7c-13.9,54-27.7,108.1-41.5,162.1C-948.9,3696.9-949,3700.9-949.7,3706.2z M-773.9,3747
		c-0.2,7.1,4.1,9.5,7.1,12.4c25.1,23.8,51.4,46.3,79.2,67c68.1,50.7,143.3,87.3,224.5,111.4c39.2,11.7,79.1,20.6,120,24.8
		c22.6,2.3,45.2,4.4,67.9,5.2c33.6,1.1,67-1.6,100.5-5.2c22.1-2.4,44-5.9,65.7-10.5c54.3-11.5,106.4-29.8,156.6-53.4
		c52.5-24.8,101.4-55.5,146.2-92.5c61.5-50.8,114.4-109.2,155.6-177.6c12.7-21.1,23.7-43.4,35.3-65.2c1.5-2.8,4.1-5.9,1.2-9.4
		c-5-1.7-8.6,1.8-12.4,3.7c-40.8,20-82.1,38.9-125.5,52.7c-7.5,2.4-12.9,6.9-17.5,12.9c-6,7.8-11.9,15.8-18.3,23.3
		C161.4,3705.7,102.6,3755,34.5,3793c-64.4,36-133.1,59.5-206.3,69.6c-26.5,3.7-53,5.8-79.7,5.5c-14.3-0.2-28.7,0.3-43-0.3
		s-28.6-1.8-42.7-3.7c-14.2-1.9-28.1-5.1-42.2-7.7c-47.8-8.7-93.5-24.2-137.6-44.6c-35.1-16.3-68.1-36.1-99.7-58.3
		c-7.2-5-14.3-7.6-23.3-7.6c-40.5,0.4-81.1,0.2-121.7,0.3C-765.4,3746.3-769.3,3746.7-773.9,3747z M254,2764.8
		c-5-5.5-7.7-8.9-10.8-11.9c-10.9-10.1-21.7-20.2-32.8-30c-54.7-48.6-115-88.6-182.1-118.2c-43-19-86.9-35.1-133.1-44.6
		c-20.3-4.2-40.4-8.8-61.2-10.6c-15.7-1.4-31.3-5-47-5.2c-40-0.5-80-2.1-120,2.1c-28,3-55.8,7.3-83.2,13.6
		c-48.7,11.2-95.9,26.7-141.3,48c-67.6,31.8-129.5,72.2-184.3,122.9c-56.3,52.1-104,111.2-140.8,178.6
		c-9.2,16.9-17.3,34.4-25.8,51.7c-1.3,2.6-2.6,5.5,1.6,8.1c2.3-0.9,5.1-1.6,7.7-2.9c7.5-3.9,14.8-7.9,22.2-12
		c33.4-18.5,68.8-32.2,104.6-45.1c7.4-2.7,13.2-6.4,17-13.2c1-1.7,2.2-3.3,3.3-4.9c28.3-40.9,63.1-74.6,107.3-98.1
		c8.7-4.6,16.7-10.5,24.8-16.1c14.7-10.1,28.8-20.9,43.8-30.5c32.9-21.1,67.9-38.5,104.3-52.7c32.7-12.7,66.6-21.6,100.9-29
		c19.8-4.3,40-6.3,60-8.4c15.7-1.7,31.6-1.4,47.4-1.6c28.2-0.4,56.4,0.2,84.2,4.6c29.7,4.7,59.1,10.8,88.1,19.2
		c57.9,16.9,111.3,43.1,161.4,76.4c4.1,2.7,8.1,5.7,12.4,8.1c2.5,1.4,5.4,2.6,8.2,2.8c11.3,0.7,22.7,1.3,34.1,1.2
		c38.6-0.2,77.1-0.7,115.7-1.2C244.1,2765.9,247.5,2765.4,254,2764.8z M337.2,3314.6c2.8,0.7,3.8,1.3,4.6,1c3.3-1,6.6-2.1,9.7-3.4
		c30.2-12.7,58.1-29.4,84.8-48.3c4-2.9,7.7-6.2,11.7-9.1c4.4-3.3,6.1-7.6,5.9-12.9c-0.1-4,0-7.9-0.3-11.9
		c-1.6-20.2-3.2-40.4-4.9-60.5c-2.6-31-7.7-61.7-15.2-91.9c-4.5-18.2-10-36.1-15.3-54.1c-0.6-1.9-2.8-3.4-5.2-6.1
		c-1.6,4.1-2.9,6.7-3.6,9.4C385.3,3122.4,361.3,3218,337.2,3314.6z M-856.8,3213.1c-7.4-0.6-7.4-0.6-10.4,0.8
		c-35.2,16-67.9,36.1-99.1,58.7c-6.8,5-9.4,10.8-8.8,18.9c1.2,14.8,1.5,29.6,3.2,44.3c3.4,29.4,6.7,58.8,14.1,87.5
		c6.1,23.8,13.2,47.4,20,71.1c0.9,3.2,1.4,7,6.1,7.8c0.8-1,2.1-1.9,2.4-3.1c23.9-92.5,47.7-185.1,71.5-277.7
		C-857.2,3218.8-857.2,3215.9-856.8,3213.1z"/>
	<path d="M-260.9,2259.2c5.7,18.7,10.5,34.2,15.3,49.7c1.3,4.2,2.6,8.5,3.7,12.8c1.8,6.8,6.2,9.5,13,9.5c15.3-0.1,30.6,0.1,45.9,0.3
		c3.8,0,7.5,0.6,13.5,1.1c-3.6,3.5-5.4,5.6-7.6,7.2c-11.8,8.9-23.8,17.7-35.6,26.5c-11.1,8.3-11.1,8.4-6.8,22.2
		c4.7,15.1,9.5,30.1,14.2,45.1c0.6,1.8,0.8,3.7,1.1,5.3c-4,2.6-6-0.6-8.1-2.1c-12.4-9-24.5-18.3-36.8-27.4c-3.5-2.6-7.3-5-11.5-7.9
		c-3,1.6-6.2,2.9-8.8,4.8c-11.6,8.4-23,17.1-34.5,25.6c-4.3,3.2-8.8,6.2-14.9,10.5c4.5-24.1,14.2-44.7,18.9-67.3
		c-16.4-15.2-35.6-26.6-52.2-40.9c1.3-3.9,4.2-2.8,6.4-2.8c13.8-0.2,27.7-0.2,41.5-0.2c3.5,0,6.9-0.1,10.4-0.2
		c6.6-0.2,10.9-3.1,12.9-9.9c5.3-18,11.1-35.8,16.7-53.6C-263.7,2265.8-262.9,2264.1-260.9,2259.2z"/>
	<path d="M-176.8,2611.6c3.4-8.3,4.2-16.4,4.6-24.7c0.3-5.3-0.7-11,4.3-15c7.7,1.6,8.8,2.3,9,7.1c0.1,4.4-0.1,8.9-0.4,13.3
		c-1.1,13.8-2.2,27.5-3.6,41.3c-0.7,6.9-5.7,9.5-11.6,5.8c-3.2-2-5.9-5.1-8.2-8.2c-6.9-9.6-13.5-19.5-20.4-29.1
		c-1.6-2.2-4-3.8-7-6.6c-1.3,2.8-2.4,4.4-2.7,6c-1.2,8.3-2.2,16.6-3.2,24.9c-1.1,8.9-2.2,9.6-13.5,7.8c-0.1-8.7,0.8-17.5,1.5-26.2
		c0.6-8.4,1.5-16.7,2.4-25c0.4-3.4,0.7-6.9,1.6-10.2c1.8-6.3,9.2-8.1,14.1-3.6c2.1,2,3.9,4.4,5.6,6.9c5.6,8.1,11.1,16.3,16.8,24.4
		C-184.6,2604.4-182.7,2609.2-176.8,2611.6z"/>
	<path d="M-390.4,2624.6c5.8,6.2,10.7,11.5,15.3,16.5c-0.1,1.3,0,2.1-0.2,2.2c-3.1,1.2-6.3,2.4-10,3.7c-3.8-3.5-7.8-6.5-10.9-10.2
		c-5.7-6.7-12.1-7.8-19.8-4c-1.3,0.7-2.7,1.1-4.1,1.6c-4.3,6.6,2,13.7-1.8,21.2c-2.5,0.5-5.6,1-8.5,1.6
		c-6.4-15.3-15.5-56.6-15.1-68.3c13-4.1,26.1-8,40.1-7.8c20.1,0.3,30.2,18.8,19.9,36.4C-386.6,2619.5-388.2,2621.4-390.4,2624.6z
		 M-429.7,2596.2c-1.1,9.6,1.2,17.9,5.1,26c8.7,1.3,16-1.3,22.8-5.2c5.8-3.3,7.9-9.4,6.2-15.2c-1.7-6-6.5-9.8-12.9-10.3
		C-415.5,2590.8-422.1,2592.7-429.7,2596.2z"/>
	<path d="M-613.1,2663.9c1.6-4.3,4.8-6,10.4-6c11.7,18,23.6,36.5,35.1,54.3c-1.5,6-5.1,7.2-9,8c-0.9-0.5-2.1-0.8-2.5-1.5
		c-2.8-4-5.4-8.2-8.2-12.3c-1.9-2.8-4.1-5.3-6.1-7.8c-2.1,0.3-3.8,0-4.9,0.7c-6.8,4.1-13.4,8.3-20.1,12.5c-2.1,1.3-4,2.8-5.5,3.9
		c1.2,11.7,10.7,18.1,12.6,28.5c-2.9,1.9-5.7,3.7-8.4,5.4c-7-7.4-31.9-45.2-37.9-57.7c2.1-2,4.4-4.2,6.7-6.4c2,1,3.6,1.3,4.4,2.3
		c2.8,3.4,5.3,7.2,8,10.6c2.1,2.6,4.6,4.9,7.1,7.7c11-4.6,20.2-10.9,29.2-18.3C-602.9,2678.3-611,2672.4-613.1,2663.9z"/>
	<path d="M85.8,2723.8c-10.4-7.6-20.4-13.8-31.5-18.3c-4.4,2.5-8.7,4.9-13.4,7.6c-3.2-2.1-6.3-4.1-10.1-6.5c2.1-2.2,3.3-3.8,4.8-4.8
		c16.2-11.2,32.5-22.3,48.9-33.3c3.2-2.2,6.6-4.3,11-2.9c6.6,2.1,9.5,5.8,9.5,13c0,3.4-0.1,6.9-0.5,10.3
		c-1.9,16.1-3.8,32.2-5.8,48.4c-0.2,1.5-0.4,2.9-0.9,4.3c-0.9,2.9-4.9,4.2-7.2,2.1c-1.7-1.6-3.6-3.7-3.9-5.8
		C85.9,2733.6,86,2729.1,85.8,2723.8z M87.7,2710.4c4.3-10.3,5-19.8,4-31.8c-10.7,4.9-18.8,10.1-25.5,19.5
		C72.6,2703.2,78.2,2708.5,87.7,2710.4z"/>
	<path d="M-315.1,2577.4c-4.4,6.1-1.9,11.6-0.4,16.8c9.8,5.7,21-2.2,30.1,4.7c0.3,0.2,0.2,0.9,0.4,2.3c-1.2,0.7-2.7,2.1-4.4,2.5
		c-5.3,1-10.7,2.2-16,2.4c-8.6,0.2-11.9,2.8-10.3,13.4c0.2,1,0.5,1.9,1,2.8c0.5,0.9,1.2,1.6,2,2.7c7.9,2.4,16.3,0.7,24.6,0.6
		c3.4,0,6.9-0.9,10.3-0.7c1.5,0.1,3.8,1.9,4,3.2c0.3,1.5-0.9,4-2.2,4.9c-1.9,1.3-4.5,2-6.9,2.4c-2.9,0.5-5.9,0.5-8.8,0.5
		c-11.8,0.1-23.5,0-36,0c-0.5-2.6-1.3-5.4-1.5-8.2c-1-12.8-1.9-25.5-2.7-38.3c-0.3-5.4-0.3-10.8,0.1-16.2c0.2-3.3,2.6-5.3,5.8-5.8
		c2.9-0.4,5.9-0.3,8.9-0.5c10.3-0.7,20.6-1.4,30.9-2c1.4-0.1,3.1-0.2,4.3,0.4c1.2,0.6,2.8,2.1,2.7,3.1c-0.2,1.7-1.3,4.4-2.5,4.6
		c-7.7,1.5-15.5,2.4-23.3,3.5C-308.5,2576.8-311.9,2577.1-315.1,2577.4z"/>
	<path d="M-532.9,2633.7c1.6,3.9,3.3,8.3,5.4,13.4c4-0.5,7.5-0.4,10.5-1.5c5.1-1.7,10-4.2,15-6.2c4.6-1.8,8-1.1,8.8,1.9
		c1,3.7-1.5,5.3-4.3,6.5c-2.3,1-4.5,1.9-6.8,2.8c-3.2,1.3-6.4,2.5-9.6,3.9c-2.2,1-4.2,2.4-6.5,3.8c-1,7.2,1.8,12.5,6.6,17.6
		c9-1.6,16.7-6.2,24.9-9c3.2-1.1,6.5-2.5,9.8-2.8c1.2-0.1,3.1,2,3.9,3.5c0.5,0.9-0.3,2.8-0.9,4c-0.4,0.8-1.3,1.5-2.2,1.9
		c-14.5,6-29.1,11.9-43.5,17.7c-6.5-9.2-22.6-46.8-26.9-62.9c1.2-1,2.5-2.7,4.1-3.4c11.7-5.1,23.5-10.1,35.3-15c1.7-0.7,4-1.4,5.6-1
		c1.5,0.4,3.1,2.3,3.8,3.9c0.4,0.9-0.4,3.3-1.3,3.8c-5.2,2.7-10.7,4.8-16,7.4C-522.4,2626.7-528.7,2627.4-532.9,2633.7z"/>
	<path d="M-41.7,2609.2c-5.3,3.9-8.7,3.9-12.3,0.9c-3-2.5-6-5.3-9.4-7.1c-9.8-4.9-19.2-3.5-27.8,3c-8.1,6.2-11.6,18.2-8,28.2
		c3.5,9.7,10.7,15.6,21,16.4c5.7,0.4,11.6-1.1,18.1-1.8c1.4,2.4,2.8,4.9,4.3,7.5c-4.3,5.8-10.1,6.3-16.1,6.4
		c-13.6,0.2-25.3-4.3-34.2-14.7c-15.3-17.7-7-50.4,15-56.6c16-4.5,31.5-2.2,44.1,10.1C-45.2,2603.5-43.8,2606.2-41.7,2609.2z"/>
	<path d="M11,2620.2c4.2,1.9,6.8,3,9.2,4.1c-1.1,9.8-12.5,37.1-26.1,62.6c-4.1,1-7.3-0.4-10.4-4.7c0.6-2.2,0.8-5.2,2-7.7
		C-5.5,2657.2,0.5,2638.4,11,2620.2z"/>
</g>
<rect width="2048" height="2048"/>
<g>
	<path class="st7" d="M249.7,1565.5c1.5-6.6,2.5-11.4,3.7-16.1c7.5-29.2,14.6-58.5,22.7-87.5c2.5-8.9,1.2-16-2.7-24
		c-11.7-24-22.2-48.5-31.3-73.6c-13.6-37.2-23.8-75.3-32.1-113.9c-5-23.2-8.5-46.6-11.3-70.2c-3.8-32-4.2-64.1-3.8-96.3
		c0.7-47.1,6.9-93.6,16.4-139.6c18.2-88,51.4-170.1,98-246.7c31.3-51.4,68.6-97.9,111.4-140.2c42.4-41.8,88.6-79,138.9-110.8
		c40.2-25.4,82.5-46.9,126.5-64.8c35.7-14.6,72.2-26.7,109.8-35.4c30.8-7.1,61.8-12.4,93.1-16.8c41.8-5.9,83.7-6.1,125.7-5.9
		c10.4,0.1,20.8-0.1,31.2,0.7c14.7,1.1,29.4,2.8,44.1,4.5c8.8,1,17.5,2.9,26.4,3.8c27.1,2.8,53.4,9.4,79.6,16.2
		c43.1,11.2,85.2,25.3,125.7,43.8c70.2,31.9,135.2,72.1,193.2,123.1c21.9,19.2,42.7,39.8,63.3,60.4c6.9,6.9,13.8,9.8,23.4,9.7
		c38.1-0.5,76.2-0.3,114.3-0.2c16,0,16.3,0.3,12.3,15.9c-10.4,41.2-21,82.3-31.7,123.4c-1.7,6.6-1.6,12.3,1.8,18.4
		c22.9,41.2,39.2,85.2,53.6,130c12.3,38.2,20.6,77.2,26.7,116.8c6.8,44.6,10.1,89.4,8.4,134.5c-0.7,19.7-3.2,39.4-4.8,59.1
		c-2.8,34.1-10.1,67.3-17.8,100.5c-8.1,34.7-19.5,68.3-32.7,101.4c-38.9,97.8-95.7,184-169.8,258.6
		c-50.4,50.7-106.4,94.5-168.6,130.2c-42.5,24.4-86.4,45.7-132.4,62.8c-38,14.2-76.8,25.3-116.8,32.1c-23.3,3.9-46.6,8.5-70.1,11.1
		c-22.1,2.4-44.2,4.5-66.6,3.9c-19.8-0.5-39.6,0.3-59.3-0.5c-15.3-0.6-30.5-2.7-45.6-4.6c-16.1-2-32.3-4.2-48.3-6.9
		c-41.9-7-82.9-17.7-123.1-31.7c-90.5-31.6-172.4-78.5-247.4-138c-45.2-35.9-84.9-77-121-121.9c-1.2-1.5-2.6-3-3.7-4.7
		c-4.6-7.5-11.1-10-19.9-9.9c-25.7,0.5-51.4,0.2-77.2,0.1C258.7,1565.9,255.3,1565.7,249.7,1565.5z M1682.7,627.9
		c-6.5-4.6-12.7-3.4-18.5-3.4c-72.2-0.1-144.5-0.6-216.7,0c-51.4,0.5-102.9-2.7-154.2,2.1c-11.3,1-22.8,1.5-33.8,4
		c-64.5,14.9-115.7,49.4-151.9,105.2c-15.7,24.3-26.6,50.7-33.5,78.8c-13,53.2-25.8,106.5-38.8,159.8
		c-18.4,75.3-37.1,150.5-55.1,225.9c-12.2,50.9-26.3,101.3-35.4,152.9c-4.5,25.3-4.1,50.2,2.5,74.9c6.9,25.9,19.7,48.5,41.3,65.2
		c12.2,9.4,25.4,17.1,39.9,22.5c21.4,8.1,43.7,12.3,66.6,12.4c52.4,0.2,104.9,0.2,157.3,0.2c15.3,0,30.5-0.5,45.8-2.5
		c32.5-4.2,62.4-14.8,89.9-32.1c37.1-23.4,66-54.8,88-92.7c15.7-27.1,26.2-56.4,35.5-86.1c1.3-4,3-8.3,1.4-12.3
		c-4.7-3.2-8.2-0.5-11.9,0.6c-24.6,7.4-49.2,14.4-74.6,18.8c-20.9,3.6-41.7,7.6-62.7,10.8c-11.7,1.8-23.5,3.2-35.3,3.4
		c-41,0.8-82.1,1.1-123.2,1.5c-6.4,0.1-12.9-0.2-19.3-0.8c-18.6-2-29.3-13.9-29.9-32.4c-0.3-10.1,2.3-19.6,4.8-29.1
		c13.1-51.7,26.3-103.4,39.4-155.1c23.8-94.3,47.7-188.6,71.4-283c1.1-4.3,1.7-8.7,5.2-11.7c10-1.2,136.8-2.4,154.4-1.3
		c1.9,0.1,3.8,0.8,5.5,1.2c1.9,5.5-0.4,10.2-1.6,14.9c-5.5,22.5-11.3,45-17,67.5c-21.7,86.2-43.3,172.4-65,258.6
		c-10.5,41.7-21.1,83.3-31.6,124.9c-0.8,3.1-0.7,6.5-1,10.3c2.8,0.5,4.7,1.2,6.5,1c13.8-1.2,27.6-1.9,41.2-4
		c20.9-3.2,41.8-6.9,62.6-11.1c28.6-5.7,56.6-13.5,84.3-22.3c6.3-2,10.3-5.3,11.8-11.8c0.9-3.9,2.1-7.6,3.1-11.4
		c5.4-21.5,10.8-43.1,16.3-64.6c22.7-90.5,45.4-181,68.1-271.5c20.1-80,40.2-159.9,60-240C1677.8,653.5,1682.1,641.3,1682.7,627.9z
		 M304.5,1527.6c6,0.3,9.9,0.7,13.7,0.7c76.2,0.4,152.3,0.9,228.5,1.2c13.8,0.1,27.7-0.9,41.5-1c33.1-0.2,66.3-0.3,99.4-0.1
		c21.5,0.1,42.3-3.8,62.5-10.7c44.7-15.3,81.3-42.3,111.3-78.4c25-30.2,41.4-64.8,51.1-102.7c7.3-28.7,14.3-57.5,21.3-86.3
		c20.7-84.9,41.4-169.8,62-254.7c13.4-55.2,27.1-110.3,40-165.5c5.3-22.6,8.8-45.6,7.5-69c-1.1-19.9-4.9-39.3-14.1-57.1
		c-21.1-41-55.4-64.7-99.9-74.2c-20.4-4.4-41.2-5-61.9-5c-47,0-93.9-1.7-140.9,1.4c-14.3,0.9-28.7,1.3-42.7,4.1
		C599,647,539.3,695.6,503.6,773.8c-11.5,25.2-17.8,52.3-25.7,78.8c-0.9,3,0,6.5,0,10.7c4.5-0.8,7.8-1.2,11.1-2.1
		c15.7-4.2,31.3-8.9,47.1-12.9c33.5-8.6,67.4-14.8,101.5-20.2c12.6-2,25.5-2.7,38.3-3.6c9.4-0.7,18.8-1,28.2-1
		c32.1,0,64.3-0.1,96.4,0.5c17.5,0.4,29.7,12.4,30.6,29.8c0.4,8.3-0.4,16.9-2.3,24.9c-11,45.1-22.5,90-34,135
		c-0.9,3.7-3.1,7-4.6,10.4c-4.3,0.4-7.7,1-11.2,1c-48,0.1-96,0.2-143.9,0.2c-2.9,0-5.9-0.3-8.8-0.8c-2.7-0.5-4.3-2.7-4-5.4
		c0.3-2.9,1.1-5.8,1.8-8.6c11.5-46,23.1-92,34.6-137.9c0.6-2.4,1.3-4.8,1.6-7.2c0.5-3.9-2.3-6.4-6.4-6.1c-1.5,0.1-2.9,0.5-4.4,0.7
		c-29.8,4.2-59.5,9.3-88.7,16.5s-58.1,15.6-87.2,23.4c-7.1,1.9-12,5.6-13.9,13.4c-12.2,48.4-24.9,96.6-37,144.9
		c-4.8,19.3-6.1,39-1.7,58.8c5.5,24.3,16.1,45.5,34.9,62.3c24.3,21.7,53.9,30.9,85.3,33.7c26,2.3,52.3,2.2,78.5,2.5
		c35.6,0.4,71.2,0,106.8,0.1c4.3,0,8.9-1.2,13.5,3.2c-1,4.7-2,9.9-3.3,15.1c-7.2,28.2-14.4,56.5-21.8,84.6
		c-5.9,22.5-2.8,20.5-26.2,20.5c-104.9,0.1-209.7,0-314.6,0.1c-4.9,0-9.9,0-14.8,0.2c-5,0.1-8.5,2.2-9.6,7.4
		c-0.4,1.9-1.2,3.8-1.7,5.7c-13.9,54-27.7,108.1-41.5,162.1C305.3,1518.4,305.2,1522.3,304.5,1527.6z M480.3,1568.5
		c-0.2,7.1,4.1,9.5,7.1,12.4c25.1,23.8,51.4,46.3,79.2,67c68.1,50.7,143.3,87.3,224.5,111.4c39.2,11.7,79.1,20.6,120,24.8
		c22.6,2.3,45.2,4.4,67.9,5.2c33.6,1.1,67-1.6,100.5-5.2c22.1-2.4,44-5.9,65.7-10.5c54.3-11.5,106.4-29.8,156.6-53.4
		c52.5-24.8,101.4-55.5,146.2-92.5c61.5-50.8,114.4-109.2,155.6-177.6c12.7-21.1,23.7-43.4,35.3-65.2c1.5-2.8,4.1-5.9,1.2-9.4
		c-5-1.7-8.6,1.8-12.4,3.7c-40.8,20-82.1,38.9-125.5,52.7c-7.5,2.4-12.9,6.9-17.5,12.9c-6,7.8-11.9,15.8-18.3,23.3
		c-50.7,59.1-109.5,108.4-177.6,146.4c-64.4,36-133.1,59.5-206.3,69.6c-26.5,3.7-53,5.8-79.7,5.5c-14.3-0.2-28.7,0.3-43-0.3
		c-14.3-0.6-28.6-1.8-42.7-3.7c-14.2-1.9-28.1-5.1-42.2-7.7c-47.8-8.7-93.5-24.2-137.6-44.6c-35.1-16.3-68.1-36.1-99.7-58.3
		c-7.2-5-14.3-7.6-23.3-7.6c-40.5,0.4-81.1,0.2-121.7,0.3C488.7,1567.7,484.9,1568.2,480.3,1568.5z M1508.2,586.2
		c-5-5.5-7.7-8.9-10.8-11.9c-10.9-10.1-21.7-20.2-32.8-30c-54.7-48.6-115-88.6-182.1-118.2c-43-19-86.9-35.1-133.1-44.6
		c-20.3-4.2-40.4-8.8-61.2-10.6c-15.7-1.4-31.3-5-47-5.2c-40-0.5-80-2.1-120,2.1c-28,3-55.8,7.3-83.2,13.6
		c-48.7,11.2-95.9,26.7-141.3,48c-67.6,31.8-129.5,72.2-184.3,122.9c-56.3,52.1-104,111.2-140.8,178.6
		c-9.2,16.9-17.3,34.4-25.8,51.7c-1.3,2.6-2.6,5.5,1.6,8.1c2.3-0.9,5.1-1.6,7.7-2.9c7.5-3.9,14.8-7.9,22.2-12
		c33.4-18.5,68.8-32.2,104.6-45.1c7.4-2.7,13.2-6.4,17-13.2c1-1.7,2.2-3.3,3.3-4.9c28.3-40.9,63.1-74.6,107.3-98.1
		c8.7-4.6,16.7-10.5,24.8-16.1c14.7-10.1,28.8-20.9,43.8-30.5c32.9-21.1,67.9-38.5,104.3-52.7c32.7-12.7,66.6-21.6,100.9-29
		c19.8-4.3,40-6.3,60-8.4c15.7-1.7,31.6-1.4,47.4-1.6c28.2-0.4,56.4,0.2,84.2,4.6c29.7,4.7,59.1,10.8,88.1,19.2
		c57.9,16.9,111.3,43.1,161.4,76.4c4.1,2.7,8.1,5.7,12.4,8.1c2.5,1.4,5.4,2.6,8.2,2.8c11.3,0.7,22.7,1.3,34.1,1.2
		c38.6-0.2,77.1-0.7,115.7-1.2C1498.3,587.3,1501.7,586.8,1508.2,586.2z M1591.3,1136c2.8,0.7,3.8,1.3,4.6,1c3.3-1,6.6-2.1,9.7-3.4
		c30.2-12.7,58.1-29.4,84.8-48.3c4-2.9,7.7-6.2,11.7-9.1c4.4-3.3,6.1-7.6,5.9-12.9c-0.1-4,0-7.9-0.3-11.9
		c-1.6-20.2-3.2-40.4-4.9-60.5c-2.6-31-7.7-61.7-15.2-91.9c-4.5-18.2-10-36.1-15.3-54.1c-0.6-1.9-2.8-3.4-5.2-6.1
		c-1.6,4.1-2.9,6.7-3.6,9.4C1639.5,943.8,1615.5,1039.5,1591.3,1136z M397.4,1034.5c-7.4-0.6-7.4-0.6-10.4,0.8
		c-35.2,16-67.9,36.1-99.1,58.7c-6.8,5-9.4,10.8-8.8,18.9c1.2,14.8,1.5,29.6,3.2,44.3c3.4,29.4,6.7,58.8,14.1,87.5
		c6.1,23.8,13.2,47.4,20,71.1c0.9,3.2,1.4,7,6.1,7.8c0.8-1,2.1-1.9,2.4-3.1c23.9-92.5,47.7-185.1,71.5-277.7
		C397,1040.2,397,1037.4,397.4,1034.5z"/>
	<path class="st7" d="M993.3,80.7c5.7,18.7,10.5,34.2,15.3,49.7c1.3,4.2,2.6,8.5,3.7,12.8c1.8,6.8,6.2,9.5,13,9.5
		c15.3-0.1,30.6,0.1,45.9,0.3c3.8,0,7.5,0.6,13.5,1.1c-3.6,3.5-5.4,5.6-7.6,7.2c-11.8,8.9-23.8,17.7-35.6,26.5
		c-11.1,8.3-11.1,8.4-6.8,22.2c4.7,15.1,9.5,30.1,14.2,45.1c0.6,1.8,0.8,3.7,1.1,5.3c-4,2.6-6-0.6-8.1-2.1
		c-12.4-9-24.5-18.3-36.8-27.4c-3.5-2.6-7.3-5-11.5-7.9c-3,1.6-6.2,2.9-8.8,4.8c-11.6,8.4-23,17.1-34.5,25.6
		c-4.3,3.2-8.8,6.2-14.9,10.5c4.5-24.1,14.2-44.7,18.9-67.3c-16.4-15.2-35.6-26.6-52.2-40.9c1.3-3.9,4.2-2.8,6.4-2.8
		c13.8-0.2,27.7-0.2,41.5-0.2c3.5,0,6.9-0.1,10.4-0.2c6.6-0.2,10.9-3.1,12.9-9.9c5.3-18,11.1-35.8,16.7-53.6
		C990.5,87.2,991.3,85.5,993.3,80.7z"/>
	<path class="st7" d="M1077.4,433c3.4-8.3,4.2-16.4,4.6-24.7c0.3-5.3-0.7-11,4.3-15c7.7,1.6,8.8,2.3,9,7.1c0.1,4.4-0.1,8.9-0.4,13.3
		c-1.1,13.8-2.2,27.5-3.6,41.3c-0.7,6.9-5.7,9.5-11.6,5.8c-3.2-2-5.9-5.1-8.2-8.2c-6.9-9.6-13.5-19.5-20.4-29.1
		c-1.6-2.2-4-3.8-7-6.6c-1.3,2.8-2.4,4.4-2.7,6c-1.2,8.3-2.2,16.6-3.2,24.9c-1.1,8.9-2.2,9.6-13.5,7.8c-0.1-8.7,0.8-17.5,1.5-26.2
		c0.6-8.4,1.5-16.7,2.4-25c0.4-3.4,0.7-6.9,1.6-10.2c1.8-6.3,9.2-8.1,14.1-3.6c2.1,2,3.9,4.4,5.6,6.9c5.6,8.1,11.1,16.3,16.8,24.4
		C1069.6,425.8,1071.5,430.6,1077.4,433z"/>
	<path class="st7" d="M863.8,446c5.8,6.2,10.7,11.5,15.3,16.5c-0.1,1.3,0,2.1-0.2,2.2c-3.1,1.2-6.3,2.4-10,3.7
		c-3.8-3.5-7.8-6.5-10.9-10.2c-5.7-6.7-12.1-7.8-19.8-4c-1.3,0.7-2.7,1.1-4.1,1.6c-4.3,6.6,2,13.7-1.8,21.2c-2.5,0.5-5.6,1-8.5,1.6
		c-6.4-15.3-15.5-56.6-15.1-68.3c13-4.1,26.1-8,40.1-7.8c20.1,0.3,30.2,18.8,19.9,36.4C867.6,440.9,866,442.9,863.8,446z
		 M824.5,417.6c-1.1,9.6,1.2,17.9,5.1,26c8.7,1.3,16-1.3,22.8-5.2c5.8-3.3,7.9-9.4,6.2-15.2c-1.7-6-6.5-9.8-12.9-10.3
		C838.7,412.3,832.1,414.1,824.5,417.6z"/>
	<path class="st7" d="M641.1,485.3c1.6-4.3,4.8-6,10.4-6c11.7,18,23.6,36.5,35.1,54.3c-1.5,6-5.1,7.2-9,8c-0.9-0.5-2.1-0.8-2.5-1.5
		c-2.8-4-5.4-8.2-8.2-12.3c-1.9-2.8-4.1-5.3-6.1-7.8c-2.1,0.3-3.8,0-4.9,0.7c-6.8,4.1-13.4,8.3-20.1,12.5c-2.1,1.3-4,2.8-5.5,3.9
		c1.2,11.7,10.7,18.1,12.6,28.5c-2.9,1.9-5.7,3.7-8.4,5.4c-7-7.4-31.9-45.2-37.9-57.7c2.1-2,4.4-4.2,6.7-6.4c2,1,3.6,1.3,4.4,2.3
		c2.8,3.4,5.3,7.2,8,10.6c2.1,2.6,4.6,4.9,7.1,7.7c11-4.6,20.2-10.9,29.2-18.3C651.3,499.7,643.2,493.8,641.1,485.3z"/>
	<path class="st7" d="M1340,545.2c-10.4-7.6-20.4-13.8-31.5-18.3c-4.4,2.5-8.7,4.9-13.4,7.6c-3.2-2.1-6.3-4.1-10.1-6.5
		c2.1-2.2,3.3-3.8,4.8-4.8c16.2-11.2,32.5-22.3,48.9-33.3c3.2-2.2,6.6-4.3,11-2.9c6.6,2.1,9.5,5.8,9.5,13c0,3.4-0.1,6.9-0.5,10.3
		c-1.9,16.1-3.8,32.2-5.8,48.4c-0.2,1.5-0.4,2.9-0.9,4.3c-0.9,2.9-4.9,4.2-7.2,2.1c-1.7-1.6-3.6-3.7-3.9-5.8
		C1340.1,555,1340.2,550.5,1340,545.2z M1341.8,531.8c4.3-10.3,5-19.8,4-31.8c-10.7,4.9-18.8,10.1-25.5,19.5
		C1326.8,524.6,1332.4,529.9,1341.8,531.8z"/>
	<path class="st7" d="M939.1,398.8c-4.4,6.1-1.9,11.6-0.4,16.8c9.8,5.7,21-2.2,30.1,4.7c0.3,0.2,0.2,0.9,0.4,2.3
		c-1.2,0.7-2.7,2.1-4.4,2.5c-5.3,1-10.7,2.2-16,2.4c-8.6,0.2-11.9,2.8-10.3,13.4c0.2,1,0.5,1.9,1,2.8s1.2,1.6,2,2.7
		c7.9,2.4,16.3,0.7,24.6,0.6c3.4,0,6.9-0.9,10.3-0.7c1.5,0.1,3.8,1.9,4,3.2c0.3,1.5-0.9,4-2.2,4.9c-1.9,1.3-4.5,2-6.9,2.4
		c-2.9,0.5-5.9,0.5-8.8,0.5c-11.8,0.1-23.5,0-36,0c-0.5-2.6-1.3-5.4-1.5-8.2c-1-12.8-1.9-25.5-2.7-38.3c-0.3-5.4-0.3-10.8,0.1-16.2
		c0.2-3.3,2.6-5.3,5.8-5.8c2.9-0.4,5.9-0.3,8.9-0.5c10.3-0.7,20.6-1.4,30.9-2c1.4-0.1,3.1-0.2,4.3,0.4s2.8,2.1,2.7,3.1
		c-0.2,1.7-1.3,4.4-2.5,4.6c-7.7,1.5-15.5,2.4-23.3,3.5C945.7,398.3,942.3,398.5,939.1,398.8z"/>
	<path class="st7" d="M721.3,455.2c1.6,3.9,3.3,8.3,5.4,13.4c4-0.5,7.5-0.4,10.5-1.5c5.1-1.7,10-4.2,15-6.2c4.6-1.8,8-1.1,8.8,1.9
		c1,3.7-1.5,5.3-4.3,6.5c-2.3,1-4.5,1.9-6.8,2.8c-3.2,1.3-6.4,2.5-9.6,3.9c-2.2,1-4.2,2.4-6.5,3.8c-1,7.2,1.8,12.5,6.6,17.6
		c9-1.6,16.7-6.2,24.9-9c3.2-1.1,6.5-2.5,9.8-2.8c1.2-0.1,3.1,2,3.9,3.5c0.5,0.9-0.3,2.8-0.9,4c-0.4,0.8-1.3,1.5-2.2,1.9
		c-14.5,6-29.1,11.9-43.5,17.7c-6.5-9.2-22.6-46.8-26.9-62.9c1.2-1,2.5-2.7,4.1-3.4c11.7-5.1,23.5-10.1,35.3-15c1.7-0.7,4-1.4,5.6-1
		c1.5,0.4,3.1,2.3,3.8,3.9c0.4,0.9-0.4,3.3-1.3,3.8c-5.2,2.7-10.7,4.8-16,7.4C731.8,448.1,725.5,448.8,721.3,455.2z"/>
	<path class="st7" d="M1212.5,430.7c-5.3,3.9-8.7,3.9-12.3,0.9c-3-2.5-6-5.3-9.4-7.1c-9.8-4.9-19.2-3.5-27.8,3
		c-8.1,6.2-11.6,18.2-8,28.2c3.5,9.7,10.7,15.6,21,16.4c5.7,0.4,11.6-1.1,18.1-1.8c1.4,2.4,2.8,4.9,4.3,7.5
		c-4.3,5.8-10.1,6.3-16.1,6.4c-13.6,0.2-25.3-4.3-34.2-14.7c-15.3-17.7-7-50.4,15-56.6c16-4.5,31.5-2.2,44.1,10.1
		C1209,425,1210.4,427.6,1212.5,430.7z"/>
	<path class="st7" d="M1265.2,441.6c4.2,1.9,6.8,3,9.2,4.1c-1.1,9.8-12.5,37.1-26.1,62.6c-4.1,1-7.3-0.4-10.4-4.7
		c0.6-2.2,0.8-5.2,2-7.7C1248.7,478.6,1254.7,459.8,1265.2,441.6z"/>
</g>
<rect x="-2434.1" y="-32.5" width="2048" height="2048"/>
<g>
	<path class="st8" d="M-1958.5,1315.7c1.1-4.7,1.8-8.2,2.7-11.6c5.4-21,10.5-42.1,16.3-63c1.8-6.4,0.9-11.5-1.9-17.3
		c-8.4-17.3-16-34.9-22.5-53c-9.8-26.8-17.1-54.2-23.1-81.9c-3.6-16.7-6.1-33.5-8.1-50.5c-2.7-23-3-46.1-2.7-69.3
		c0.5-33.9,5-67.3,11.8-100.4c13.1-63.3,37-122.4,70.5-177.5c22.5-37,49.4-70.4,80.2-100.9c30.5-30.1,63.7-56.8,99.9-79.7
		c28.9-18.3,59.4-33.7,91-46.6c25.7-10.5,51.9-19.2,79-25.5c22.2-5.1,44.5-8.9,67-12.1c30.1-4.2,60.2-4.4,90.4-4.2
		c7.5,0.1,15-0.1,22.4,0.5c10.6,0.8,21.2,2,31.7,3.2c6.3,0.7,12.6,2.1,19,2.7c19.5,2,38.4,6.8,57.3,11.7c31,8.1,61.3,18.2,90.4,31.5
		c50.7,22.9,97.4,51.8,139.1,88.4c15.8,13.8,30.7,28.6,45.5,43.5c5,5,9.9,7.1,16.8,7c27.4-0.4,54.8-0.2,82.2-0.1
		c11.5,0,11.7,0.2,8.8,11.4c-7.5,29.6-15.1,59.2-22.8,88.8c-1.2,4.7-1.2,8.8,1.3,13.2c16.5,29.6,28.2,61.3,38.6,93.5
		c8.8,27.5,14.8,55.5,19.2,84c4.9,32.1,7.3,64.3,6,96.8c-0.5,14.2-2.3,28.3-3.5,42.5c-2,24.5-7.3,48.4-12.8,72.3
		c-5.8,25-14,49.1-23.5,73c-28,70.4-68.9,132.4-122.2,186.1c-36.3,36.5-76.6,68-121.3,93.7c-30.6,17.6-62.2,32.9-95.3,45.2
		c-27.3,10.2-55.3,18.2-84,23.1c-16.8,2.8-33.5,6.1-50.4,8c-15.9,1.7-31.8,3.2-47.9,2.8c-14.2-0.4-28.5,0.2-42.7-0.4
		c-11-0.4-21.9-1.9-32.8-3.3c-11.6-1.4-23.2-3-34.8-5c-30.1-5-59.6-12.7-88.6-22.8c-65.1-22.7-124-56.5-178-99.3
		c-32.5-25.8-61.1-55.4-87.1-87.7c-0.9-1.1-1.9-2.2-2.7-3.4c-3.3-5.4-8-7.2-14.3-7.1c-18.5,0.4-37,0.1-55.5,0.1
		C-1952,1316-1954.5,1315.8-1958.5,1315.7z M-927.4,641c-4.7-3.3-9.1-2.4-13.3-2.4c-51.9-0.1-104-0.4-155.9,0
		c-37,0.4-74-1.9-110.9,1.5c-8.1,0.7-16.4,1.1-24.3,2.9c-46.4,10.7-83.2,35.5-109.3,75.7c-11.3,17.5-19.1,36.5-24.1,56.7
		c-9.4,38.3-18.6,76.6-27.9,115c-13.2,54.2-26.7,108.3-39.6,162.5c-8.8,36.6-18.9,72.9-25.5,110c-3.2,18.2-2.9,36.1,1.8,53.9
		c5,18.6,14.2,34.9,29.7,46.9c8.8,6.8,18.3,12.3,28.7,16.2c15.4,5.8,31.4,8.8,47.9,8.9c37.7,0.1,75.5,0.1,113.2,0.1
		c11,0,21.9-0.4,33-1.8c23.4-3,44.9-10.6,64.7-23.1c26.7-16.8,47.5-39.4,63.3-66.7c11.3-19.5,18.9-40.6,25.5-61.9
		c0.9-2.9,2.2-6,1-8.8c-3.4-2.3-5.9-0.4-8.6,0.4c-17.7,5.3-35.4,10.4-53.7,13.5c-15,2.6-30,5.5-45.1,7.8c-8.4,1.3-16.9,2.3-25.4,2.4
		c-29.5,0.6-59.1,0.8-88.6,1.1c-4.6,0.1-9.3-0.1-13.9-0.6c-13.4-1.4-21.1-10-21.5-23.3c-0.2-7.3,1.7-14.1,3.5-20.9
		c9.4-37.2,18.9-74.4,28.3-111.6c17.1-67.8,34.3-135.7,51.4-203.6c0.8-3.1,1.2-6.3,3.7-8.4c7.2-0.9,98.4-1.7,111.1-0.9
		c1.4,0.1,2.7,0.6,4,0.9c1.4,4-0.3,7.3-1.2,10.7c-4,16.2-8.1,32.4-12.2,48.6c-15.6,62-31.2,124-46.8,186.1
		c-7.6,30-15.2,59.9-22.7,89.9c-0.6,2.2-0.5,4.7-0.7,7.4c2,0.4,3.4,0.9,4.7,0.7c9.9-0.9,19.9-1.4,29.6-2.9c15-2.3,30.1-5,45-8
		c20.6-4.1,40.7-9.7,60.7-16c4.5-1.4,7.4-3.8,8.5-8.5c0.6-2.8,1.5-5.5,2.2-8.2c3.9-15.5,7.8-31,11.7-46.5
		c16.3-65.1,32.7-130.2,49-195.3c14.5-57.6,28.9-115,43.2-172.7C-931,659.5-927.9,650.7-927.4,641z M-1919.1,1288.4
		c4.3,0.2,7.1,0.5,9.9,0.5c54.8,0.3,109.6,0.6,164.4,0.9c9.9,0.1,19.9-0.6,29.9-0.7c23.8-0.1,47.7-0.2,71.5-0.1
		c15.5,0.1,30.4-2.7,45-7.7c32.2-11,58.5-30.4,80.1-56.4c18-21.7,29.8-46.6,36.8-73.9c5.3-20.6,10.3-41.4,15.3-62.1
		c14.9-61.1,29.8-122.2,44.6-183.3c9.6-39.7,19.5-79.4,28.8-119.1c3.8-16.3,6.3-32.8,5.4-49.6c-0.8-14.3-3.5-28.3-10.1-41.1
		c-15.2-29.5-39.9-46.6-71.9-53.4c-14.7-3.2-29.6-3.6-44.5-3.6c-33.8,0-67.6-1.2-101.4,1c-10.3,0.6-20.6,0.9-30.7,2.9
		c-60.9,12.1-104,47.1-129.7,103.4c-8.3,18.1-12.8,37.6-18.5,56.7c-0.6,2.2,0,4.7,0,7.7c3.2-0.6,5.6-0.9,8-1.5
		c11.3-3,22.5-6.4,33.9-9.3c24.1-6.2,48.5-10.6,73-14.5c9.1-1.4,18.3-1.9,27.6-2.6c6.8-0.5,13.5-0.7,20.3-0.7
		c23.1,0,46.3-0.1,69.4,0.4c12.6,0.3,21.4,8.9,22,21.4c0.3,6-0.3,12.2-1.7,17.9c-7.9,32.4-16.2,64.8-24.5,97.1
		c-0.6,2.7-2.2,5-3.3,7.5c-3.1,0.3-5.5,0.7-8.1,0.7c-34.5,0.1-69.1,0.1-103.5,0.1c-2.1,0-4.2-0.2-6.3-0.6c-1.9-0.4-3.1-1.9-2.9-3.9
		c0.2-2.1,0.8-4.2,1.3-6.2c8.3-33.1,16.6-66.2,24.9-99.2c0.4-1.7,0.9-3.5,1.2-5.2c0.4-2.8-1.7-4.6-4.6-4.4c-1.1,0.1-2.1,0.4-3.2,0.5
		c-21.4,3-42.8,6.7-63.8,11.9s-41.8,11.2-62.7,16.8c-5.1,1.4-8.6,4-10,9.6c-8.8,34.8-17.9,69.5-26.6,104.3
		c-3.5,13.9-4.4,28.1-1.2,42.3c4,17.5,11.6,32.7,25.1,44.8c17.5,15.6,38.8,22.2,61.4,24.2c18.7,1.7,37.6,1.6,56.5,1.8
		c25.6,0.3,51.2,0,76.8,0.1c3.1,0,6.4-0.9,9.7,2.3c-0.7,3.4-1.4,7.1-2.4,10.9c-5.2,20.3-10.4,40.7-15.7,60.9
		c-4.2,16.2-2,14.7-18.9,14.7c-75.5,0.1-150.9,0-226.3,0.1c-3.5,0-7.1,0-10.6,0.1c-3.6,0.1-6.1,1.6-6.9,5.3
		c-0.3,1.4-0.9,2.7-1.2,4.1c-10,38.9-19.9,77.8-29.9,116.6C-1918.4,1281.7-1918.6,1284.6-1919.1,1288.4z M-1792.6,1317.8
		c-0.1,5.1,2.9,6.8,5.1,8.9c18.1,17.1,37,33.3,57,48.2c49,36.5,103.1,62.8,161.5,80.2c28.2,8.4,56.9,14.8,86.3,17.8
		c16.3,1.7,32.5,3.2,48.9,3.7c24.2,0.8,48.2-1.2,72.3-3.7c15.9-1.7,31.7-4.2,47.3-7.6c39.1-8.3,76.6-21.4,112.7-38.4
		c37.8-17.8,73-39.9,105.2-66.6c44.2-36.5,82.3-78.6,112-127.8c9.1-15.2,17.1-31.2,25.4-46.9c1.1-2,2.9-4.2,0.9-6.8
		c-3.6-1.2-6.2,1.3-8.9,2.7c-29.4,14.4-59.1,28-90.3,37.9c-5.4,1.7-9.3,5-12.6,9.3c-4.3,5.6-8.6,11.4-13.2,16.8
		c-36.5,42.5-78.8,78-127.8,105.3c-46.3,25.9-95.8,42.8-148.4,50.1c-19.1,2.7-38.1,4.2-57.3,4c-10.3-0.1-20.6,0.2-30.9-0.2
		s-20.6-1.3-30.7-2.7c-10.2-1.4-20.2-3.7-30.4-5.5c-34.4-6.3-67.3-17.4-99-32.1c-25.3-11.7-49-26-71.7-41.9
		c-5.2-3.6-10.3-5.5-16.8-5.5c-29.1,0.3-58.4,0.1-87.6,0.2C-1786.5,1317.3-1789.3,1317.6-1792.6,1317.8z M-1053,611.1
		c-3.6-4-5.5-6.4-7.8-8.6c-7.8-7.3-15.6-14.5-23.6-21.6c-39.4-35-82.7-63.7-131-85c-30.9-13.7-62.5-25.3-95.8-32.1
		c-14.6-3-29.1-6.3-44-7.6c-11.3-1-22.5-3.6-33.8-3.7c-28.8-0.4-57.6-1.5-86.3,1.5c-20.1,2.2-40.1,5.3-59.9,9.8
		c-35,8.1-69,19.2-101.7,34.5c-48.6,22.9-93.2,51.9-132.6,88.4c-40.5,37.5-74.8,80-101.3,128.5c-6.6,12.2-12.4,24.8-18.6,37.2
		c-0.9,1.9-1.9,4,1.2,5.8c1.7-0.6,3.7-1.2,5.5-2.1c5.4-2.8,10.6-5.7,16-8.6c24-13.3,49.5-23.2,75.3-32.4c5.3-1.9,9.5-4.6,12.2-9.5
		c0.7-1.2,1.6-2.4,2.4-3.5c20.4-29.4,45.4-53.7,77.2-70.6c6.3-3.3,12-7.6,17.8-11.6c10.6-7.3,20.7-15,31.5-21.9
		c23.7-15.2,48.9-27.7,75-37.9c23.5-9.1,47.9-15.5,72.6-20.9c14.2-3.1,28.8-4.5,43.2-6c11.3-1.2,22.7-1,34.1-1.2
		c20.3-0.3,40.6,0.1,60.6,3.3c21.4,3.4,42.5,7.8,63.4,13.8c41.7,12.2,80.1,31,116.1,55c2.9,1.9,5.8,4.1,8.9,5.8c1.8,1,3.9,1.9,5.9,2
		c8.1,0.5,16.3,0.9,24.5,0.9c27.8-0.1,55.5-0.5,83.2-0.9C-1060.2,611.9-1057.7,611.5-1053,611.1z M-993.2,1006.7
		c2,0.5,2.7,0.9,3.3,0.7c2.4-0.7,4.7-1.5,7-2.4c21.7-9.1,41.8-21.2,61-34.8c2.9-2.1,5.5-4.5,8.4-6.5c3.2-2.4,4.4-5.5,4.2-9.3
		c-0.1-2.9,0-5.7-0.2-8.6c-1.2-14.5-2.3-29.1-3.5-43.5c-1.9-22.3-5.5-44.4-10.9-66.1c-3.2-13.1-7.2-26-11-38.9
		c-0.4-1.4-2-2.4-3.7-4.4c-1.2,2.9-2.1,4.8-2.6,6.8C-958.6,868.4-975.8,937.2-993.2,1006.7z M-1852.2,933.6
		c-5.3-0.4-5.3-0.4-7.5,0.6c-25.3,11.5-48.9,26-71.3,42.2c-4.9,3.6-6.8,7.8-6.3,13.6c0.9,10.6,1.1,21.3,2.3,31.9
		c2.4,21.2,4.8,42.3,10.1,63c4.4,17.1,9.5,34.1,14.4,51.2c0.6,2.3,1,5,4.4,5.6c0.6-0.7,1.5-1.4,1.7-2.2
		c17.2-66.6,34.3-133.2,51.4-199.8C-1852.5,937.7-1852.5,935.7-1852.2,933.6z"/>
	<path class="st8" d="M-1423.5,247.3c4.1,13.5,7.6,24.6,11,35.8c0.9,3,1.9,6.1,2.7,9.2c1.3,4.9,4.5,6.8,9.4,6.8
		c11-0.1,22,0.1,33,0.2c2.7,0,5.4,0.4,9.7,0.8c-2.6,2.5-3.9,4-5.5,5.2c-8.5,6.4-17.1,12.7-25.6,19.1c-8,6-8,6-4.9,16
		c3.4,10.9,6.8,21.7,10.2,32.4c0.4,1.3,0.6,2.7,0.8,3.8c-2.9,1.9-4.3-0.4-5.8-1.5c-8.9-6.5-17.6-13.2-26.5-19.7
		c-2.5-1.9-5.3-3.6-8.3-5.7c-2.2,1.2-4.5,2.1-6.3,3.5c-8.3,6-16.5,12.3-24.8,18.4c-3.1,2.3-6.3,4.5-10.7,7.6
		c3.2-17.3,10.2-32.2,13.6-48.4c-11.8-10.9-25.6-19.1-37.6-29.4c0.9-2.8,3-2,4.6-2c9.9-0.1,19.9-0.1,29.9-0.1c2.5,0,5-0.1,7.5-0.1
		c4.7-0.1,7.8-2.2,9.3-7.1c3.8-13,8-25.8,12-38.6C-1425.4,252.1-1424.9,250.9-1423.5,247.3z"/>
	<path class="st8" d="M-1362.9,500.9c2.4-6,3-11.8,3.3-17.8c0.2-3.8-0.5-7.9,3.1-10.8c5.5,1.2,6.3,1.7,6.5,5.1
		c0.1,3.2-0.1,6.4-0.3,9.6c-0.8,9.9-1.6,19.8-2.6,29.7c-0.5,5-4.1,6.8-8.3,4.2c-2.3-1.4-4.2-3.7-5.9-5.9c-5-6.9-9.7-14-14.7-20.9
		c-1.2-1.6-2.9-2.7-5-4.7c-0.9,2-1.7,3.2-1.9,4.3c-0.9,6-1.6,11.9-2.3,17.9c-0.8,6.4-1.6,6.9-9.7,5.6c-0.1-6.3,0.6-12.6,1.1-18.9
		c0.4-6,1.1-12,1.7-18c0.3-2.4,0.5-5,1.2-7.3c1.3-4.5,6.6-5.8,10.1-2.6c1.5,1.4,2.8,3.2,4,5c4,5.8,8,11.7,12.1,17.6
		C-1368.6,495.7-1367.2,499.2-1362.9,500.9z"/>
	<path class="st8" d="M-1516.6,510.2c4.2,4.5,7.7,8.3,11,11.9c-0.1,0.9,0,1.5-0.1,1.6c-2.2,0.9-4.5,1.7-7.2,2.7
		c-2.7-2.5-5.6-4.7-7.8-7.3c-4.1-4.8-8.7-5.6-14.2-2.9c-0.9,0.5-1.9,0.8-2.9,1.2c-3.1,4.7,1.4,9.9-1.3,15.3c-1.8,0.4-4,0.7-6.1,1.2
		c-4.6-11-11.2-40.7-10.9-49.1c9.4-2.9,18.8-5.8,28.9-5.6c14.5,0.2,21.7,13.5,14.3,26.2C-1513.9,506.6-1515,507.9-1516.6,510.2z
		 M-1544.9,489.8c-0.8,6.9,0.9,12.9,3.7,18.7c6.3,0.9,11.5-0.9,16.4-3.7c4.2-2.4,5.7-6.8,4.5-10.9c-1.2-4.3-4.7-7.1-9.3-7.4
		C-1534.7,485.9-1539.4,487.3-1544.9,489.8z"/>
	<path class="st8" d="M-1676.9,538.5c1.2-3.1,3.5-4.3,7.5-4.3c8.4,13,17,26.3,25.3,39.1c-1.1,4.3-3.7,5.2-6.5,5.8
		c-0.6-0.4-1.5-0.6-1.8-1.1c-2-2.9-3.9-5.9-5.9-8.8c-1.4-2-2.9-3.8-4.4-5.6c-1.5,0.2-2.7,0-3.5,0.5c-4.9,2.9-9.6,6-14.5,9
		c-1.5,0.9-2.9,2-4,2.8c0.9,8.4,7.7,13,9.1,20.5c-2.1,1.4-4.1,2.7-6,3.9c-5-5.3-23-32.5-27.3-41.5c1.5-1.4,3.2-3,4.8-4.6
		c1.4,0.7,2.6,0.9,3.2,1.7c2,2.4,3.8,5.2,5.8,7.6c1.5,1.9,3.3,3.5,5.1,5.5c7.9-3.3,14.5-7.8,21-13.2
		C-1669.6,548.9-1675.4,544.6-1676.9,538.5z"/>
	<path class="st8" d="M-1174.1,581.6c-7.5-5.5-14.7-9.9-22.7-13.2c-3.2,1.8-6.3,3.5-9.6,5.5c-2.3-1.5-4.5-2.9-7.3-4.7
		c1.5-1.6,2.4-2.7,3.5-3.5c11.7-8.1,23.4-16,35.2-24c2.3-1.6,4.7-3.1,7.9-2.1c4.7,1.5,6.8,4.2,6.8,9.4c0,2.4-0.1,5-0.4,7.4
		c-1.4,11.6-2.7,23.2-4.2,34.8c-0.1,1.1-0.3,2.1-0.6,3.1c-0.6,2.1-3.5,3-5.2,1.5c-1.2-1.2-2.6-2.7-2.8-4.2
		C-1174,588.7-1173.8,585.4-1174.1,581.6z M-1172.7,572c3.1-7.4,3.6-14.2,2.9-22.9c-7.7,3.5-13.5,7.3-18.3,14
		C-1183.5,566.8-1179.5,570.6-1172.7,572z"/>
	<path class="st8" d="M-1462.5,476.3c-3.2,4.4-1.4,8.3-0.3,12.1c7.1,4.1,15.1-1.6,21.7,3.4c0.2,0.1,0.1,0.6,0.3,1.7
		c-0.9,0.5-1.9,1.5-3.2,1.8c-3.8,0.7-7.7,1.6-11.5,1.7c-6.2,0.1-8.6,2-7.4,9.6c0.1,0.7,0.4,1.4,0.7,2c0.4,0.6,0.9,1.2,1.4,1.9
		c5.7,1.7,11.7,0.5,17.7,0.4c2.4,0,5-0.6,7.4-0.5c1.1,0.1,2.7,1.4,2.9,2.3c0.2,1.1-0.6,2.9-1.6,3.5c-1.4,0.9-3.2,1.4-5,1.7
		c-2.1,0.4-4.2,0.4-6.3,0.4c-8.5,0.1-16.9,0-25.9,0c-0.4-1.9-0.9-3.9-1.1-5.9c-0.7-9.2-1.4-18.3-1.9-27.6c-0.2-3.9-0.2-7.8,0.1-11.7
		c0.1-2.4,1.9-3.8,4.2-4.2c2.1-0.3,4.2-0.2,6.4-0.4c7.4-0.5,14.8-1,22.2-1.4c1-0.1,2.2-0.1,3.1,0.3c0.9,0.4,2,1.5,1.9,2.2
		c-0.1,1.2-0.9,3.2-1.8,3.3c-5.5,1.1-11.2,1.7-16.8,2.5C-1457.8,475.8-1460.2,476.1-1462.5,476.3z"/>
	<path class="st8" d="M-1619.2,516.9c1.2,2.8,2.4,6,3.9,9.6c2.9-0.4,5.4-0.3,7.6-1.1c3.7-1.2,7.2-3,10.8-4.5
		c3.3-1.3,5.8-0.8,6.3,1.4c0.7,2.7-1.1,3.8-3.1,4.7c-1.7,0.7-3.2,1.4-4.9,2c-2.3,0.9-4.6,1.8-6.9,2.8c-1.6,0.7-3,1.7-4.7,2.7
		c-0.7,5.2,1.3,9,4.7,12.7c6.5-1.2,12-4.5,17.9-6.5c2.3-0.8,4.7-1.8,7.1-2c0.9-0.1,2.2,1.4,2.8,2.5c0.4,0.6-0.2,2-0.6,2.9
		c-0.3,0.6-0.9,1.1-1.6,1.4c-10.4,4.3-20.9,8.6-31.3,12.7c-4.7-6.6-16.3-33.7-19.4-45.3c0.9-0.7,1.8-1.9,2.9-2.4
		c8.4-3.7,16.9-7.3,25.4-10.8c1.2-0.5,2.9-1,4-0.7c1.1,0.3,2.2,1.7,2.7,2.8c0.3,0.6-0.3,2.4-0.9,2.7c-3.7,1.9-7.7,3.5-11.5,5.3
		C-1611.7,511.7-1616.1,512.2-1619.2,516.9z"/>
	<path class="st8" d="M-1265.8,499.2c-3.8,2.8-6.3,2.8-8.8,0.6c-2.2-1.8-4.3-3.8-6.8-5.1c-7.1-3.5-13.8-2.5-20,2.2
		c-5.8,4.5-8.3,13.1-5.8,20.3c2.5,7,7.7,11.2,15.1,11.8c4.1,0.3,8.3-0.8,13-1.3c1,1.7,2,3.5,3.1,5.4c-3.1,4.2-7.3,4.5-11.6,4.6
		c-9.8,0.1-18.2-3.1-24.6-10.6c-11-12.7-5-36.3,10.8-40.7c11.5-3.2,22.7-1.6,31.7,7.3C-1268.2,495.1-1267.3,497-1265.8,499.2z"/>
	<path class="st8" d="M-1227.9,507.1c3,1.4,4.9,2.2,6.6,2.9c-0.8,7.1-9,26.7-18.8,45c-2.9,0.7-5.3-0.3-7.5-3.4
		c0.4-1.6,0.6-3.7,1.4-5.5C-1239.7,533.7-1235.4,520.2-1227.9,507.1z"/>
</g>
<image style="overflow:visible;enable-background:new    ;" width="1634" height="837" xlink:href="6906C1A4.jpg"  transform="matrix(0.9993 0 0 0.9993 -4878.8276 -1449.808)">
</image>
</svg>
